<?xml version="1.0" standalone="no"?>
<!DOCTYPE svg PUBLIC "-//W3C//DTD SVG 20010904//EN"
 "http://www.w3.org/TR/2001/REC-SVG-20010904/DTD/svg10.dtd">
<svg version="1.0" xmlns="http://www.w3.org/2000/svg"
 width="950.000000pt" height="876.000000pt" viewBox="0 0 950.000000 876.000000"
 preserveAspectRatio="xMidYMid meet">
<metadata>
Created by potrace 1.16, written by Peter Selinger 2001-2019
</metadata>
<g transform="translate(0.000000,876.000000) scale(0.100000,-0.100000)"
fill="#000000" stroke="none">
<path d="M5185 7504 c-183 -44 -273 -91 -385 -204 -97 -97 -140 -165 -182
-285 -134 -391 104 -825 512 -932 87 -23 263 -23 350 0 86 23 212 85 283 142
109 87 208 240 244 380 27 107 25 287 -5 385 -41 130 -87 206 -187 305 -96 97
-181 149 -299 187 -60 19 -282 34 -331 22z"/>
<path d="M4176 6235 c-79 -20 -182 -76 -238 -129 -25 -25 -153 -181 -284 -348
-131 -167 -301 -384 -379 -483 -202 -255 -241 -323 -265 -455 -29 -159 34
-329 164 -447 29 -26 131 -96 227 -155 96 -59 341 -211 544 -337 l370 -230 0
-648 c0 -642 0 -648 22 -701 51 -126 162 -204 291 -205 156 -2 270 84 329 247
18 51 106 1364 100 1506 -4 113 -29 171 -108 255 -26 28 -208 172 -403 321
-223 169 -354 274 -351 282 7 20 427 552 436 552 4 0 75 -78 158 -174 167
-192 203 -228 265 -257 28 -14 172 -42 459 -88 304 -48 421 -71 427 -81 8 -16
120 -426 120 -441 0 -5 -185 -9 -430 -9 l-430 0 6 -27 c4 -16 22 -71 39 -123
l32 -95 291 -5 292 -5 -329 -328 -328 -328 -7 -137 c-4 -75 -9 -159 -12 -187
l-6 -50 485 484 485 484 15 -54 c45 -157 68 -252 64 -262 -2 -7 -22 -18 -43
-26 -22 -7 -79 -36 -129 -63 -326 -183 -560 -488 -651 -848 -35 -142 -44 -377
-20 -530 87 -552 501 -977 1071 -1102 95 -21 410 -17 515 6 470 102 843 435
994 886 55 165 69 266 63 465 -4 138 -10 189 -31 273 -65 258 -185 463 -380
650 -190 181 -424 301 -681 347 -80 15 -273 20 -425 12 l-34 -2 -142 530
c-140 521 -142 530 -124 550 51 55 66 174 31 244 -24 47 -78 95 -123 110 -18
6 -201 44 -406 84 -204 41 -374 76 -376 78 -2 2 -116 173 -253 379 -138 206
-269 396 -292 422 -60 68 -173 139 -271 172 -105 35 -251 44 -344 21z m2644
-2895 c434 -54 781 -367 879 -793 66 -283 5 -584 -164 -822 -53 -74 -191 -207
-268 -258 -165 -109 -319 -157 -528 -164 -197 -7 -336 21 -494 100 -146 72
-311 218 -398 350 -313 474 -182 1116 290 1424 78 51 171 99 178 91 1 -1 48
-171 103 -376 l100 -373 -34 -50 c-38 -57 -48 -98 -42 -172 18 -216 283 -316
438 -166 57 55 80 109 80 189 0 112 -54 196 -157 242 -35 15 -44 26 -52 56 -6
20 -51 189 -101 374 -49 186 -90 340 -90 342 0 15 157 18 260 6z"/>
<path d="M3693 3528 l-180 -180 -59 44 c-412 311 -1001 348 -1449 91 -338
-193 -575 -518 -651 -892 -29 -141 -33 -359 -9 -495 93 -532 495 -955 1025
-1077 110 -26 345 -36 462 -20 442 59 821 330 1023 730 149 297 177 675 74
999 -40 123 -110 264 -184 366 l-57 79 198 198 c109 109 196 200 194 203 -5 4
-171 114 -196 128 -5 4 -91 -74 -191 -174z m-822 -202 c104 -23 241 -78 333
-137 47 -29 86 -56 86 -59 0 -3 -108 -113 -239 -244 l-239 -239 -61 13 c-135
28 -258 -7 -345 -100 -71 -76 -91 -127 -91 -235 0 -82 3 -97 33 -157 38 -77
92 -130 171 -167 47 -22 70 -26 141 -26 71 0 94 4 140 26 74 34 125 81 162
146 l30 53 342 -2 341 -3 -3 -35 c-12 -111 -81 -289 -159 -407 -99 -151 -285
-304 -453 -374 -148 -62 -214 -74 -405 -74 -147 0 -182 3 -255 23 -172 47
-314 128 -449 257 -97 93 -152 167 -210 282 -161 322 -138 713 60 1014 165
250 429 418 724 458 87 12 259 6 346 -13z m639 -431 c71 -104 144 -286 163
-407 l6 -38 -350 0 c-192 0 -349 3 -349 7 0 14 483 492 492 487 4 -3 21 -25
38 -49z"/>
</g>
</svg>
