<?xml version="1.0" standalone="no"?>
<!DOCTYPE svg PUBLIC "-//W3C//DTD SVG 20010904//EN"
 "http://www.w3.org/TR/2001/REC-SVG-20010904/DTD/svg10.dtd">
<svg version="1.0" xmlns="http://www.w3.org/2000/svg"
 width="600.000000pt" height="600.000000pt" viewBox="0 0 600.000000 600.000000"
 preserveAspectRatio="xMidYMid meet">

<g transform="translate(0.000000,600.000000) scale(0.100000,-0.100000)"
fill="#000000" stroke="none">
<path d="M3410 4737 c-118 -27 -212 -102 -267 -216 -25 -50 -28 -67 -28 -161
0 -96 3 -110 29 -165 94 -190 314 -270 512 -185 58 25 150 112 179 170 65 131
57 276 -23 394 -90 133 -250 197 -402 163z"/>
<path d="M2695 3990 l-310 -150 -193 -197 c-107 -109 -199 -209 -207 -223 -7
-14 -18 -50 -24 -80 -27 -138 60 -229 167 -172 17 10 127 110 243 222 l210
205 140 54 c77 29 142 51 145 49 2 -3 -48 -220 -111 -483 -64 -263 -114 -479
-113 -480 2 -1 176 -148 388 -325 269 -225 387 -330 392 -349 4 -14 19 -138
33 -276 28 -266 42 -341 80 -414 38 -75 75 -104 140 -109 54 -4 57 -3 93 35
42 44 60 92 69 186 9 97 -23 433 -67 708 l-19 116 -73 70 c-65 61 -424 399
-455 427 -9 9 7 126 72 520 47 280 85 516 84 525 0 19 -330 285 -356 288 -10
1 -157 -65 -328 -147z"/>
<path d="M3360 3260 c-13 -82 -22 -152 -19 -154 14 -13 523 -170 564 -174 41
-3 57 1 85 20 68 46 99 143 66 206 -33 63 -100 104 -236 145 -100 31 -403 107
-423 107 -9 0 -20 -42 -37 -150z"/>
<path d="M2283 2077 c-229 -376 -345 -577 -352 -607 -15 -69 2 -131 49 -173
46 -42 87 -53 137 -36 86 27 96 40 434 582 178 286 330 530 337 543 11 22 6
28 -123 138 -74 64 -136 116 -137 116 -2 0 -157 -253 -345 -563z"/>
</g>
</svg>
