<?xml version="1.0" standalone="no"?>
<!DOCTYPE svg PUBLIC "-//W3C//DTD SVG 20010904//EN"
 "http://www.w3.org/TR/2001/REC-SVG-20010904/DTD/svg10.dtd">
<svg version="1.0" xmlns="http://www.w3.org/2000/svg"
 width="820.000000pt" height="512.000000pt" viewBox="0 0 820.000000 512.000000"
 preserveAspectRatio="xMidYMid meet">
<metadata>
Created by potrace 1.16, written by Peter Selinger 2001-2019
</metadata>
<g transform="translate(0.000000,512.000000) scale(0.100000,-0.100000)"
fill="#000000" stroke="none">
<path d="M3900 4845 c-239 -52 -465 -185 -620 -367 -303 -357 -372 -873 -171
-1294 65 -135 117 -211 224 -321 147 -152 316 -251 522 -304 76 -20 115 -23
250 -23 176 0 264 16 406 74 179 74 378 235 488 395 312 451 283 1059 -71
1475 -157 184 -379 313 -626 365 -92 19 -312 19 -402 0z"/>
<path d="M3400 2450 c-401 -121 -810 -369 -1031 -623 -195 -225 -289 -417
-349 -717 -64 -321 -59 -564 16 -711 28 -56 94 -115 143 -129 52 -14 166 -12
264 5 90 16 300 76 355 102 56 27 126 98 157 160 26 51 29 69 30 148 0 79 -4
98 -29 153 -20 44 -46 78 -84 112 l-55 49 18 48 c164 436 573 764 1048 839
160 26 397 15 547 -24 128 -33 271 -92 364 -148 256 -157 462 -396 571 -663
l23 -55 -63 -61 c-85 -84 -108 -145 -103 -270 5 -106 30 -165 100 -232 59 -56
101 -76 253 -118 330 -91 467 -81 561 42 160 209 99 845 -116 1213 -97 165
-274 358 -450 489 -224 167 -576 336 -842 406 l-68 18 -53 -36 c-83 -54 -168
-94 -264 -124 -80 -24 -103 -27 -253 -27 -152 0 -172 2 -253 27 -96 30 -183
71 -263 123 -28 19 -57 34 -65 33 -8 0 -57 -13 -109 -29z"/>
<path d="M3950 1583 c-173 -27 -333 -94 -484 -203 l-49 -35 234 -228 c151
-147 239 -226 249 -223 8 3 42 15 75 27 83 29 206 24 286 -13 l56 -26 232 225
c127 124 231 228 231 231 -1 11 -110 87 -181 126 -89 49 -208 91 -309 110 -75
15 -273 20 -340 9z"/>
<path d="M4688 972 l-229 -227 26 -80 c37 -109 32 -198 -18 -297 l-33 -68 38
0 c107 0 544 60 643 88 l30 9 -1 169 c-1 153 -3 178 -28 259 -15 50 -42 123
-61 162 -35 75 -120 213 -131 213 -3 0 -109 -102 -236 -228z"/>
<path d="M3213 1104 c-114 -176 -163 -347 -163 -575 0 -110 3 -138 14 -142 57
-22 551 -87 659 -87 l43 0 -35 72 c-34 67 -36 77 -36 167 1 79 5 106 25 150
l24 54 -226 223 c-124 123 -231 224 -237 224 -6 0 -37 -39 -68 -86z"/>
<path d="M4010 718 c-24 -13 -57 -40 -74 -61 -26 -32 -31 -49 -34 -107 -4 -61
-1 -75 22 -114 105 -179 376 -105 376 101 0 154 -154 250 -290 181z"/>
</g>
</svg>
