<?xml version="1.0" encoding="UTF-8" standalone="no"?>
<svg
   xmlns:dc="http://purl.org/dc/elements/1.1/"
   xmlns:cc="http://creativecommons.org/ns#"
   xmlns:rdf="http://www.w3.org/1999/02/22-rdf-syntax-ns#"
   xmlns:svg="http://www.w3.org/2000/svg"
   xmlns="http://www.w3.org/2000/svg"
   viewBox="0 0 1066.6667 1066.6667"
   height="1066.6667"
   width="1066.6667"
   xml:space="preserve"
   id="svg5406"
   version="1.1"><metadata
     id="metadata5412"><rdf:RDF><cc:Work
         rdf:about=""><dc:format>image/svg+xml</dc:format><dc:type
           rdf:resource="http://purl.org/dc/dcmitype/StillImage" /><dc:title></dc:title></cc:Work></rdf:RDF></metadata><defs
     id="defs5410"><clipPath
       id="clipPath5424"
       clipPathUnits="userSpaceOnUse"><path
         id="path5422"
         d="M 7999.99,0 H 0 V 8000 H 7999.99 V 0 m -7632.006,3635.47 -0.054,-1.25 0.082,-1.94 -0.082,-1.94 0.082,-1.95 -0.082,-1.94 0.082,-1.94 -0.082,-1.94 0.082,-1.95 -0.082,-1.94 0.082,-1.94 -0.082,-1.94 0.082,-1.95 -0.082,-1.94 0.082,-1.94 -0.082,-1.95 0.082,-1.94 -0.082,-1.94 0.082,-1.94 -0.082,-1.95 0.082,-1.94 -0.082,-1.94 0.082,-1.94 -0.082,-1.95 0.082,-1.94 -0.082,-1.94 0.082,-1.94 -0.082,-1.95 0.082,-1.94 -0.082,-1.94 0.082,-1.94 -0.082,-1.95 0.082,-1.94 -0.082,-1.94 0.082,-1.95 -0.082,-1.94 0.082,-1.94 -0.082,-1.94 0.082,-1.94 -0.082,-1.95 0.082,-1.94 -0.082,-1.94 c 0,-204.76 556.945,-370.75 1243.97,-370.75 687.03,0 1243.97,165.99 1243.97,370.75 l -0.08,1.94 0.08,1.94 -0.08,1.95 0.08,1.94 -0.08,1.94 0.08,1.94 -0.08,1.94 0.08,1.95 -0.08,1.94 0.08,1.94 -0.08,1.95 0.08,1.94 -0.08,1.94 0.08,1.94 -0.08,1.95 0.08,1.94 -0.08,1.94 0.08,1.94 -0.08,1.95 0.08,1.94 -0.08,1.94 0.08,1.94 -0.08,1.95 0.08,1.94 -0.08,1.94 0.08,1.94 -0.08,1.95 0.08,1.94 -0.08,1.94 0.08,1.95 -0.08,1.94 0.08,1.94 -0.08,1.94 0.08,1.95 -0.08,1.94 0.08,1.94 -0.08,1.94 0.08,1.95 -0.08,1.94 0.08,1.94 -0.05,1.27 c 0.02,0.83 0.04,1.64 0.05,2.47 v 0.15 c 0,0.17 0,0.36 0,0.53 0,0.19 0,0.39 0,0.58 0,144.58 -239.74,271.18 -598.7,341.17 68.47,130.35 92.02,257.01 90.14,320.94 0,0 -266.23,-240.11 -657.7,-240.11 -37.61,0 -76.36,2.22 -116.16,7.07 -454.02,55.42 -665.11,81.22 -775.259,233.04 0,0 7.903,-164.28 91.106,-337.31 -315.641,-72.37 -521.367,-190.88 -521.367,-324.8 0,-0.19 0,-0.39 0,-0.58 0,-0.17 0,-0.36 0,-0.53 l 0.004,-0.14 c 0.007,-0.84 0.027,-1.67 0.05,-2.5 M 6386.57,3344.14 c 47.18,0 73.55,-102.32 191.22,-136.92 12.12,-3.56 24.01,-5.17 35.65,-5.17 102.45,0 186.79,124.46 267.13,133.8 89.48,10.4 161.91,111.78 222.62,115.77 25.65,1.68 61.75,9.6 99.02,9.6 50.96,0 104.09,-14.8 135.67,-80.59 27.01,-56.28 74.65,-84.33 116.54,-84.33 42.9,0 79.77,29.42 82.29,88.09 4.3,100.35 19.77,213.29 -127.56,306.77 2.47,17.29 8.74,87.39 -52.17,87.39 -1.64,0 -3.35,-0.05 -5.09,-0.16 -4.79,-0.29 -9.31,-0.42 -13.57,-0.42 -62.83,0 -69.85,29.32 -69.85,29.32 15.13,128.75 -158.83,129.35 -158.83,129.35 0,0 34.34,74.94 0,108.37 -21.71,21.13 -65.72,25.02 -95.16,25.02 -17.12,0 -29.31,-1.32 -29.31,-1.32 0,0 44.48,62.17 51.95,116.47 7.46,54.3 -80.14,68.19 -80.14,68.19 0,0 13.02,51.48 0,110.57 -9.72,44.12 -47.97,49.71 -66.74,49.71 -6.37,0 -10.5,-0.64 -10.5,-0.64 9.47,73.91 -19.33,91.83 -49.48,91.83 -28.39,0 -57.98,-15.88 -57.98,-15.88 0,0 -15.54,44.03 -63.93,44.03 -7.84,0 -16.54,-1.15 -26.17,-3.84 -39.07,-10.88 -77.44,-54.57 -103.41,-90.51 -6.33,22.17 -22.4,61.01 -59.42,74.71 -12.76,4.72 -26.11,6.9 -39.49,6.9 -29.99,0 -60.13,-10.94 -84.17,-28.61 -107.48,47.01 -212.9,79.65 -278.17,87.91 -6.59,1.4 -14.16,2.01 -22.42,2.01 -0.8,0 -1.59,0 -2.4,-0.01 -0.29,0 -0.57,0.01 -0.86,0.02 -1.53,0.02 -3.07,0.04 -4.59,0.04 -31.77,0 -61.78,-6.15 -88.71,-15.47 -38.24,-9.78 -69.07,-20.61 -69.07,-20.61 0,0 -102.73,-5.4 -129.24,-19.63 -26.51,-14.24 -122.61,-91.81 -159.06,-164.51 -36.46,-72.7 -43.08,-311.16 -43.08,-311.16 -3.74,-8.14 -7.19,-16.08 -10.36,-23.79 -48.09,-31.18 -88.17,-64.56 -123.81,-66.86 -52.19,-3.37 -139.18,-39.7 -94.44,-107.8 44.73,-68.11 -12.91,-152.45 55.67,-209.69 59.13,-49.35 135.94,-75.9 179.62,-75.9 6.99,0 13.13,0.68 18.21,2.06 0,0 38.67,-38.27 99.16,-38.27 7.98,0 16.33,0.66 25.03,2.17 0,0 22.17,-87.81 149.54,-87.81 37.9,0 85.1,7.77 143.81,27.94 0,0 -42.01,-99.15 63.5,-139.93 30.21,-11.67 62.22,-15.88 93.65,-15.88 78.35,0 153.11,26.11 187.44,27.64 0.48,0.02 0.97,0.03 1.46,0.03" /></clipPath><radialGradient
       id="radialGradient5430"
       spreadMethod="pad"
       gradientTransform="matrix(3573.34,0,0,-3573.34,-1395.86,2299.54)"
       gradientUnits="userSpaceOnUse"
       r="1"
       cy="0"
       cx="0"
       fy="0"
       fx="0"><stop
         id="stop5426"
         offset="0"
         style="stop-opacity:1;stop-color:#ffffff" /><stop
         id="stop5428"
         offset="1"
         style="stop-opacity:1;stop-color:#feebda" /></radialGradient><clipPath
       id="clipPath5510"
       clipPathUnits="userSpaceOnUse"><path
         id="path5508"
         d="m 1583.14,6935.02 c -209.2,-5.9 -581.24,-9.35 -709.339,-126.98 -128.094,-117.64 -98.442,-275.61 -30.477,-322.66 67.973,-47.06 729.356,-156.85 1092.736,-67.97 363.37,88.88 454.63,217.48 305.81,389.51 -117.59,135.93 -371.86,136.19 -658.73,128.1" /></clipPath><clipPath
       id="clipPath5526"
       clipPathUnits="userSpaceOnUse"><path
         id="path5524"
         d="m 2040.63,6558.57 c -139.16,-51.2 -308.48,-154.23 -585.58,-94.11 -277.11,60.13 -567.284,201.3 -773.804,94.11 -206.519,-107.18 -230.047,-313.7 -96.726,-415.65 0,0 298.019,-235.28 593.42,-75.81 295.41,159.46 501.93,186.27 684.92,201.62 182.99,15.36 342.46,-10.79 371.21,127.76 28.76,138.56 -19.1,226.24 -193.44,162.08" /></clipPath><clipPath
       id="clipPath5552"
       clipPathUnits="userSpaceOnUse"><path
         id="path5550"
         d="m 1826.54,6254.31 c 0,0 -67.38,28.74 -103.85,-45.16 0,0 -92.58,-31.37 -46.55,-115.03 0,0 7.57,-70.25 92.29,-82.45 0,0 16.27,-36.78 81.13,-29.81 0,0 29.49,-27.05 71.33,6.88 0,0 63.09,-17.1 75.29,42.64 39.63,-5.23 36.93,55.73 28.95,69.69 0,0 27.58,38.36 -5.9,74.96 16.58,13.67 -6.28,71.46 -66.95,69.71 -6.28,31 -85.69,61.41 -125.74,8.57" /></clipPath><clipPath
       id="clipPath5600"
       clipPathUnits="userSpaceOnUse"><path
         id="path5598"
         d="m 1638.04,6106.32 c 0,0 205.38,136.88 420.88,117.64 292.79,-26.14 117.54,-144.06 144.37,-193.59 33.98,-62.74 135.35,-18.16 153.65,21.05 0,0 117.64,2.62 180.38,91.5 0,0 117.64,-10.46 117.64,75.81 0,0 49.67,52.28 0,120.25 0,0 49.67,41.83 -33.99,146.4 -83.65,104.56 -323.12,167.24 -487.82,143.71 -200.62,-28.66 -380.09,-274.42 -550.01,-316.25 -169.92,-41.83 -258.46,-43.73 -329.39,-5.23 -91.49,49.67 -235.27,54.24 -290.172,-31.7 -54.898,-85.94 54.902,-219.26 232.662,-271.54 177.77,-52.29 376.44,54.89 441.8,101.95" /></clipPath><clipPath
       id="clipPath5662"
       clipPathUnits="userSpaceOnUse"><path
         id="path5660"
         d="m 1421.88,6965.38 c 0,0 -20.91,36.6 0,61 0,0 -8.71,73.2 50.54,73.2 0,0 41.83,29.62 87.14,0 0,0 78.43,43.56 99.34,-24.4 0,0 55.77,-12.2 38.34,-67.97 0,0 20.91,0 15.69,-33.12 0,0 -108.06,-12.19 -125.48,-17.42 -17.43,-5.23 -94.12,0 -111.54,12.2 -17.43,12.2 -54.03,-3.49 -54.03,-3.49" /></clipPath><clipPath
       id="clipPath5692"
       clipPathUnits="userSpaceOnUse"><path
         id="path5690"
         d="m 1257.77,6987.51 c 0,0 -44.76,20.9 -68.99,-32.83 0,0 -61.5,-22.81 -30.92,-83.62 0,0 5.03,-51.07 61.31,-59.94 0,0 10.81,-26.74 53.9,-21.67 0,0 19.59,-19.66 47.39,5 0,0 41.91,-12.42 50.02,31 26.32,-3.8 24.53,40.51 19.23,50.66 0,0 18.32,27.89 -3.92,54.49 11.01,9.94 -4.17,51.95 -44.48,50.68 -4.17,22.54 -56.93,44.65 -83.54,6.23" /></clipPath><clipPath
       id="clipPath5726"
       clipPathUnits="userSpaceOnUse"><path
         id="path5724"
         d="m 2083.32,7033.48 c 0,0 -47.05,22.66 -73.19,-27.88 0,0 -101.09,-31.37 -62.75,-115.02 0,0 -6.93,-80.17 63.63,-92.37 0,0 7.83,-40.09 61.86,-33.11 0,0 34.85,-34.75 69.71,-0.82 0,0 52.28,-6.16 76.68,32.18 24.4,38.35 16.79,66.19 10.14,80.15 0,0 22.97,38.37 -4.91,74.96 13.81,13.67 -5.23,71.46 -55.77,69.72 -5.23,31 -62.74,43.57 -85.4,12.19" /></clipPath><clipPath
       id="clipPath5778"
       clipPathUnits="userSpaceOnUse"><path
         id="path5776"
         d="m 1883,6581.26 c 0,0 -10.46,32.86 -61.87,22.4 -51.41,-10.46 -68.84,4.87 -94.99,-22.4 0,0 -38.34,2.36 -47.92,-26.4 -9.59,-28.76 -1.75,-46.18 -11.33,-54.03 -9.59,-7.84 -22.66,-67.09 14.81,-87.13 0,0 12.2,-66.23 75.81,-63.62 0,0 55.77,-18.3 89.76,4.36 0,0 44.1,16 60.83,40.68 0,0 26.31,2.02 34.15,41.23 7.84,39.21 -13.94,51.41 -8.71,62.74 5.22,11.33 29.62,78.07 -50.54,82.17" /></clipPath><clipPath
       id="clipPath5814"
       clipPathUnits="userSpaceOnUse"><path
         id="path5812"
         d="m 757.824,6277.76 c 0,0 3.434,40.12 -49.98,53.38 0,0 -29.477,57.27 -98.403,22.87 0,0 -59.652,-1.68 -95.746,-40.79 -36.093,-39.12 -11.433,-77.38 -11.433,-77.38 0,0 -37.309,-42.85 -20.164,-70.42 17.144,-27.57 35.82,-37.77 35.82,-37.77 0,0 -9.68,-33.96 19.43,-58.56 29.113,-24.59 52.207,-16.98 52.207,-16.98 0,0 59.718,-27.68 94.66,-0.57 0,0 60.43,-16.91 71.754,49.51 0,0 55.875,21.68 36.441,80.23 0,0 41.203,75.94 -34.586,96.48" /></clipPath><clipPath
       id="clipPath6616"
       clipPathUnits="userSpaceOnUse"><path
         id="path6614"
         d="m 3248.32,6115.49 c 27.33,-29.82 96.93,-72.08 154.09,-94.44 57.16,-22.37 146.63,-89.48 208.77,-94.45 62.13,-4.97 196.34,-39.76 196.34,-39.76 16.21,10.8 63.25,3.26 114.79,-4.29 43.3,-6.34 89.77,-12.68 123.81,-8.14 74.56,9.94 310.67,42.25 367.83,67.1 57.16,24.86 134.21,72.08 173.97,84.51 39.77,12.42 129.24,52.19 129.24,52.19 17.4,34.8 146.64,119.3 213.74,241.08 67.11,121.78 -9.94,320.61 -49.7,385.23 -39.77,64.62 -161.55,176.46 -161.55,176.46 -22.37,4.97 -141.67,94.44 -210.04,124.27 -68.38,29.82 -217.44,64.62 -259.69,77.05 -42.26,12.42 -114.33,34.79 -149.13,34.79 -34.79,0 -39.76,12.43 -39.76,12.43 -18.46,-7.1 -61.27,-4.47 -104.78,-1.83 -32.63,1.98 -65.65,3.96 -89.08,1.83 -54.68,-4.97 -183.92,2.48 -236.11,-14.91 -52.19,-17.4 -106.87,-29.83 -106.87,-29.83 -27.34,-32.31 -101.9,-69.59 -131.72,-91.96 -29.83,-22.37 -42.25,-12.43 -42.25,-12.43 0,0 -9.95,-14.91 -59.65,-39.76 -49.71,-24.86 -146.64,-119.3 -188.89,-183.92 -42.25,-64.62 -84.5,-223.68 -69.59,-310.67 14.91,-86.98 106.87,-233.22 106.87,-233.22 37.28,12.83 82.02,-67.5 109.36,-97.33 m 763,1107.94 c 28.63,8.57 57.16,-21.84 57.16,-21.84 54.68,22.37 238.6,-24.85 377.78,-54.68 139.18,-29.82 357.89,-193.85 357.89,-193.85 42.25,-7.46 86.99,-52.2 181.43,-161.55 94.44,-109.36 136.69,-315.64 84.5,-511.99 -52.19,-196.34 -260.96,-315.64 -260.96,-315.64 -7.46,-19.88 -86.99,-69.59 -203.8,-129.23 -116.81,-59.65 -449.85,-124.27 -571.63,-129.24 -121.78,-4.97 -253.51,42.25 -253.51,42.25 -74.56,-12.43 -298.24,77.04 -385.23,116.81 -86.99,39.76 -238.59,129.24 -293.27,180.27 -54.68,51.03 -67.1,110.52 -67.1,110.52 -82.02,96.92 -131.73,255.99 -126.76,404.1 4.97,148.11 129.24,314.16 183.92,353.93 54.68,39.77 164.03,126.75 164.03,126.75 19.88,59.65 186.4,114.33 238.6,136.7 52.19,22.37 203.65,42.35 270.9,44.73 27.18,0.97 63.58,-0.25 100.43,-1.46 59.9,-1.97 121,-3.94 145.62,3.42" /></clipPath><clipPath
       id="clipPath6836"
       clipPathUnits="userSpaceOnUse"><path
         id="path6834"
         d="m 5456.52,6481.45 c 0,0 -8.95,-97.83 29.8,-145.47 38.75,-47.63 65.58,-89.36 107.31,-92.34 41.73,-2.98 74.52,-18.8 98.36,-37.72 23.85,-18.92 89.43,-15.94 101.35,-12.96 0,0 62.59,-42.24 128.17,-18.14 0,0 47.69,-35.63 89.42,-31.1 41.73,4.53 59.62,10.38 98.36,0 38.75,-10.37 122.21,-7.39 172.88,16.46 0,0 65.58,-6.48 101.35,14.64 23.7,14 50.02,9.33 75.49,4.67 12.96,-2.38 25.71,-4.75 37.78,-4.67 35.77,0.26 105.65,25.03 131.81,52.89 0,0 50.01,-10.9 85.78,15.93 35.77,26.82 61.55,45.79 87.41,66.11 25.86,20.33 46.84,51.92 36.35,103.19 -10.49,51.27 -18.04,114.99 -195.3,113.39 -52.35,-0.48 -174.48,8.1 -321.42,16.68 -350.64,20.47 -842.57,40.94 -864.9,-61.56" /></clipPath><clipPath
       id="clipPath6868"
       clipPathUnits="userSpaceOnUse"><path
         id="path6866"
         d="m 5745.65,6522.88 c 0,0 -131.34,-80.57 -137.21,-154.57 0,0 59.71,-69.69 122.3,-77.81 0,0 29.81,54.37 65.58,45.48 35.77,-8.88 95.38,-29.75 125.19,-17.83 29.81,11.93 82.44,117.06 125.19,148.7 42.75,31.64 -226.82,65.31 -301.05,56.03" /></clipPath><clipPath
       id="clipPath6886"
       clipPathUnits="userSpaceOnUse"><path
         id="path6884"
         d="m 6191.1,6474.86 c 0,0 147.71,-104.7 171.56,-184.36 0,0 35.75,-2.15 76,33.62 0,0 28.32,-5.97 76.01,0 47.69,5.96 110.29,27.81 113.27,40.73 2.98,12.92 0,126.32 -98.37,147.12 -98.36,20.8 -250.7,54.01 -338.47,-37.11" /></clipPath><clipPath
       id="clipPath7126"
       clipPathUnits="userSpaceOnUse"><path
         id="path7124"
         d="m 798.191,4301.33 c 0,0 34.204,-711.89 710.919,-732.86 676.71,-20.97 843.08,567.05 838.2,732.86 0,0 -319.83,-288.45 -773.86,-233.04 -454.02,55.42 -665.11,81.22 -775.259,233.04" /></clipPath><clipPath
       id="clipPath7152"
       clipPathUnits="userSpaceOnUse"><path
         id="path7150"
         d="m 868.434,4246.92 c 0,0 -5.246,31.46 15.726,49.81 20.973,18.35 41.945,13.1 41.945,13.1 0,0 7.868,36.71 55.051,34.08 0,0 13.11,5.25 18.352,41.95 5.242,36.7 49.812,13.11 60.292,36.7 10.49,23.6 15.73,47.19 47.19,60.3 31.46,13.1 65.54,15.72 83.89,52.43 18.35,36.7 10.49,65.54 34.08,91.75 23.59,26.21 68.16,0 68.16,0 0,0 2.62,28.84 34.08,34.08 31.46,5.24 57.67,-7.87 68.16,-15.73 0,0 7.86,44.57 47.19,65.54 39.32,20.97 60.29,0 60.29,0 0,0 10.49,24.9 34.08,18.35 23.6,-6.55 32.77,-22.28 41.95,-18.35 9.17,3.93 20.97,49.81 43.25,62.92 13.14,7.73 26.28,4.97 36.73,2.22 7.28,-1.92 13.25,-3.84 17.01,-2.22 9.18,3.93 36.7,26.21 72.09,19.66 35.4,-6.56 66.85,-61.61 61.61,-110.11 0,0 38.01,13.11 69.47,-5.24 31.46,-18.35 39.32,-61.61 48.5,-65.54 9.17,-3.93 68.16,-29.38 73.4,-91.81 0,0 29.71,9.23 38.45,-18.73 0,0 54.18,-10.48 73.4,-54.18 19.23,-43.69 40.2,-61.17 52.43,-62.91 12.24,-1.75 57.68,-15.73 54.18,-48.94 -3.49,-33.21 29.71,-38.45 22.72,-62.92 -6.99,-24.46 -81.27,-196.61 -576.73,-204.47 -495.47,-7.87 -676.357,78.64 -796.946,178.26" /></clipPath><clipPath
       id="clipPath8728"
       clipPathUnits="userSpaceOnUse"><path
         id="path8726"
         d="m 3200.72,3505.91 c -21.66,17.29 -5.57,43.63 -5.66,64.35 -0.1,21.81 -17.09,41.55 -8.68,65.07 3.7,10.38 12.01,18.76 16.31,29.43 5.24,12.98 3.57,14.88 4.32,28.6 1.39,25.22 19.08,41.6 19.52,63.02 0.33,15.76 -7.92,24.18 2.67,39.47 7.72,11.14 20.18,10.63 22.55,26.74 1.5,41.9 31.64,48.68 74.33,41.22 22.94,-4.01 23.01,-20.03 38.43,-30.62 14.18,-9.74 29.58,-1.21 45.57,-1.14 21.27,0.11 29.68,-6.59 39.11,-25.18 14.03,8.82 22.98,-2.63 27.17,-16.26 96.16,-35.59 53.71,-133.33 31.61,-208.67 -14.1,-48.05 -30.31,-128.54 -78.66,-155.16 -35.46,-19.52 -76.27,7.32 -110.33,18.26 -39.08,12.55 -71.3,21.67 -103.77,48.19 l -14.49,12.68" /></clipPath><clipPath
       id="clipPath9308"
       clipPathUnits="userSpaceOnUse"><path
         id="path9306"
         d="m 460.543,1384.7 c -56.066,66.41 -87.074,226.71 20.094,293.7 107.172,66.98 581.643,245.95 896.453,420.11 314.82,174.15 656.91,423.86 804.58,420.52 147.68,-3.35 228.06,-174.16 97.44,-321.52 C 2148.5,2050.15 1418.39,1638.21 1090.18,1484.15 761.965,1330.09 611.254,1206.17 460.543,1384.7" /></clipPath><clipPath
       id="clipPath9346"
       clipPathUnits="userSpaceOnUse"><path
         id="path9344"
         d="m 779.617,1617.97 c 0,0 -0.711,2.21 -2.09,6.48 -0.566,1.75 -1.879,5.48 -3.539,9.68 -1.742,4.26 -3.133,8.76 -4.761,13.89 -3.329,10.32 -6.797,23.37 -9.457,39.52 -1.321,8.06 -2.176,17.03 -2.168,26.8 -0.297,9.7 0.418,20.42 2.707,31.67 4.453,22.33 16.14,47.73 36.246,66.4 19.742,19.03 45.09,30.72 70.804,37.44 12.942,3.45 26.098,5.69 39.59,7.17 3.617,0.28 8.473,0.53 12.129,0.61 3.676,0.06 7.445,0.17 11.051,0.01 7.375,-0.16 14.48,-0.7 21.641,-1.27 28.269,-2.88 55.21,-8.37 80.86,-12.55 25.33,-4.22 50.13,-6.88 66.36,-4.21 4.06,0.56 7.48,1.46 10.55,2.55 1.56,0.44 2.97,1.07 4.39,1.66 l 0.27,0.1 c -3.15,-1.55 -2.64,-1.3 -2.14,-1.05 0.27,0.14 0.55,0.28 0.22,0.12 l 1.24,0.64 2.48,1.31 2.49,1.3 1.25,0.65 -0.18,0.03 c -0.56,-0.36 -0.53,-0.3 -0.38,-0.24 0.18,0.07 0.54,0.14 0.29,-0.51 -0.23,-0.87 0.08,-2.41 0.93,-1.06 0.87,1.16 1.86,4.7 2.33,9.74 0.45,4.99 0.12,11.53 -0.25,18.79 -0.88,14.54 -3.24,31.98 -3.69,52.83 -0.19,10.46 0.64,22.35 3.77,35.21 3.18,12.79 9.88,26.52 19.32,36.84 9.36,10.31 20.22,17.69 30.46,22.59 9.12,4.77 22.2,9.02 32.76,10.86 22.03,3.94 42.71,3.2 61.86,0.77 19.22,-2.07 37.38,-5.73 54.9,-8.97 17.5,-3.37 34.42,-6.73 50.23,-9.06 15.58,-2.4 30.86,-3.58 40.95,-2.55 1.97,0.21 4.94,0.38 6.1,0.61 l 4.26,0.65 c 3.15,0.37 5.75,0.99 8.08,1.53 4.37,1.01 6.29,2.92 2.57,-0.03 -1.61,-1.52 -3.59,-4.72 -4.2,-7.16 -0.71,-2.39 -0.29,-3.4 -0.17,-2.83 0.44,1.14 0.03,7.15 -1.78,13.68 -3.32,13.58 -9.48,30.61 -15.1,49.08 -2.85,9.31 -5.7,19.16 -7.93,30.01 -2.22,10.82 -4.24,22.83 -3.15,37.04 0.57,7.06 1.82,14.77 4.76,22.41 1.48,3.82 3.3,7.56 5.47,11.09 l 1.7,2.59 0.87,1.28 c 0.1,0.18 2.58,3.54 1.79,2.39 l 2.24,2.53 1.12,1.27 2.17,2.25 4.73,4.64 c 3.13,2.79 5.8,4.58 8.81,6.73 5.97,3.69 12.07,6.81 18.07,8.95 24.19,8.57 45.61,8.36 65.7,7.36 39.92,-2.4 76.72,-10.18 111.62,-16.67 8.8,-1.64 16.59,-3.05 24.72,-4.1 l 26.33,-4.63 c 15.7,-2.71 30.65,-4.06 39.23,-2.78 4.2,0.46 5.65,1.71 4.16,1.04 l -1.12,-0.75 -0.27,-0.27 c 0.07,0.07 -0.32,-0.37 -0.7,-0.81 -0.56,-0.63 -1.12,-1.27 -0.32,-0.36 l 0.53,0.61 1.56,1.85 -1.16,-1.64 -0.33,-0.64 -0.56,-1.72 c -0.75,-2.94 0.69,-3.47 -0.02,0.11 -0.77,3.3 -2.76,8.99 -5.85,15.16 -3.12,6.19 -6.85,13.22 -11.14,20.9 -4.34,8.12 -8.9,15.44 -14.1,28.76 -2.03,6.29 -6.42,20.24 -7.61,31.49 -1.66,11.89 -1.31,27.42 6.12,42.73 3.52,7.59 9.04,14.18 14.81,19.29 5.8,4.9 12.03,8.59 17.68,11.08 11.52,5.27 21.97,7.35 31.71,8.71 19.44,2.33 36.74,2.17 53.43,1.14 33.53,-1.88 62.95,-5.51 93.58,-11.06 28.46,-5.05 55.38,-9.42 74.07,-8.7 4.11,0.23 5.13,0.37 7.01,0.64 2.03,0.24 3.25,0.66 4.09,0.84 0.53,0.2 0.2,0.26 -1.31,-0.97 -1.47,-1.09 -4.06,-4.09 -5.12,-6.95 -2.07,-6.17 -0.07,-5.26 -0.65,-1.67 -0.37,3.55 -1.22,8.88 -2.42,14.58 -2.41,11.5 -5.64,24.46 -7.43,38.54 -0.86,7.03 -1.42,14.32 -1.05,22.43 0.59,8.07 1.18,17.16 6.02,27.55 4.47,10.33 14.99,20.62 25.07,24.44 10.06,4.23 18.5,4.57 25.66,4.81 14.3,0 25.2,-2.38 35.41,-4.59 20.12,-4.6 36.76,-9.51 51.26,-12.62 14.18,-3.13 26.89,-4.45 32.24,-3.02 1.31,0.25 1.89,0.66 1.82,0.81 l -0.01,0.02 v 0.01 c 0.62,0.24 0.08,0.03 -0.46,-0.17 -0.44,-0.17 -0.88,-0.34 -0.71,-0.27 l 0.93,0.48 1.45,0.81 -0.74,0.11 c 0.61,0.84 1.76,2.35 2.8,4.12 4.68,7.53 5.88,15.17 5.92,14.72 7.55,17.38 27.77,25.35 45.15,17.8 17.39,-7.56 25.35,-27.77 17.8,-45.16 0,0 -1.36,-2.65 -4.45,-7.63 -3.26,-4.91 -7.69,-12.35 -16.58,-21.6 -4.49,-4.56 -10.2,-9.69 -18.43,-14.3 -1.76,-1.03 -4.81,-2.53 -7.7,-3.73 -1.38,-0.57 -1.51,-0.52 -2.33,-0.81 l -1,-0.31 c 0.1,0.04 -0.4,-0.15 -0.91,-0.34 -0.64,-0.24 -1.29,-0.48 -0.76,-0.27 l -0.5,-0.15 -1.02,-0.29 c -5.45,-1.58 -10.7,-2.3 -15.49,-2.48 -19.17,-0.4 -34.41,4.07 -50.67,8.67 -16.03,4.65 -32.62,10.48 -49.45,14.64 -8.26,1.99 -16.89,3.56 -23.12,3.56 -3.05,0.12 -5.22,-0.72 -4.92,-0.78 l 2.82,2.07 c 0.4,0.29 -0.08,-1.98 0.63,-5.18 0.55,-3.21 1.6,-7.34 3.05,-11.73 2.84,-8.79 7.24,-18.61 12.25,-30.56 2.48,-6.05 5.24,-12.66 7.27,-21.51 1.01,-4.47 1.94,-9.62 2.12,-16.05 0.18,-6.37 -0.73,-14.53 -4.44,-23.31 -3.63,-8.79 -10.54,-16.94 -17.31,-21.84 -6.79,-5.09 -13.2,-7.7 -18.92,-9.61 -5.49,-1.68 -10.75,-2.85 -15.34,-3.47 -4.73,-0.74 -10.41,-1.16 -13.04,-1.29 -35.48,-1.18 -64.07,6.82 -92.44,13.7 -26.23,6.85 -56.39,12.7 -84.48,16.28 -14.11,1.38 -28.36,2.09 -40.43,0.27 -5.94,-0.83 -11.26,-2.31 -14.32,-3.84 -3.25,-1.76 -2.81,-2.57 -2.1,-1.98 0.5,0.5 0.51,-1.11 1.86,-5.24 1.87,-4.89 3.16,-6.55 7.97,-15.34 l 11.58,-14.01 c 5.16,-6.13 11.14,-12.82 16.95,-20.95 5.83,-8.13 12.11,-17.36 16.98,-30.13 4.83,-12.39 8.85,-30.62 3.4,-50.2 -1.26,-4.77 -3.07,-9.37 -5.17,-13.7 -1.09,-2.12 -2.18,-4.16 -3.43,-6.28 -1.52,-2.37 -3.13,-4.7 -4.82,-6.95 l -2.51,-3.15 -0.51,-0.63 -2.11,-2.36 -2.56,-2.54 c -3.45,-3.34 -7.27,-6.36 -11.15,-8.87 -15.92,-10.31 -31.87,-13.25 -44.89,-14.22 -26.2,-1.17 -46.04,4.33 -64.42,9.61 l -24.91,8.09 c -9.11,2.75 -18.38,6.05 -26.66,9.07 -33.34,12.24 -65.69,24.14 -97.38,27.94 -15.45,1.67 -30.95,1.21 -40.69,-2.79 -4.98,-1.95 -7.69,-4.54 -8.78,-6.68 l -1.89,-2.81 c -0.66,-0.93 -0.22,-0.32 0.23,0.28 0.32,0.44 0.65,0.87 0.58,0.74 l -0.02,-0.16 -0.06,-0.28 -0.06,-1.2 c 0.06,-0.9 -0.01,-2.2 0.39,-4.13 1.32,-8.01 8.23,-22.38 16.82,-36.44 8.54,-14.57 18.61,-29.7 27.42,-49.89 4.1,-10.35 8.77,-21.76 10.05,-38.53 0.49,-8.35 0.1,-18.41 -3.41,-29.31 -3.47,-10.9 -10.39,-21.82 -18.44,-29.52 -16.74,-15.43 -32.35,-19.58 -45.11,-22.69 -6.37,-1.3 -12.53,-2.25 -18.22,-2.74 -2.82,-0.31 -5.97,-0.39 -8.99,-0.54 -2.1,-0.09 -3.46,-0.09 -4.81,-0.08 -0.75,0 -1.5,0 -2.37,-0.01 -25.42,-0.23 -45.2,5.11 -63.76,10.57 -18.4,5.66 -35.02,12.17 -51.03,17.93 -15.96,5.95 -31.32,10.83 -45.94,14.26 -14.61,2.95 -28.42,4.39 -39.68,2.31 -9.72,-1.26 -21.85,-8.09 -23.65,-12.76 -1.26,-2.34 -1.45,-4.16 -1.25,-7.5 0.11,-3.28 1.18,-7.93 2.87,-13.58 3.38,-11.45 9.82,-25.04 15.89,-41.46 3.11,-8.22 6,-17.15 8.15,-27.75 2.2,-10.52 3.62,-22.68 2.1,-36.81 -1.43,-13.93 -6.68,-30.29 -15.99,-43.45 -9.47,-13.48 -19.38,-22.49 -33.46,-31.08 l -2.52,-1.54 -1.25,-0.64 -2.5,-1.29 -2.49,-1.28 -1.25,-0.64 -3.17,-1.56 -1.02,-0.43 c -5.45,-2.35 -10.93,-4.47 -16.48,-6.11 -11.08,-3.17 -22.15,-5.1 -32.6,-5.73 -20.95,-1.13 -39.41,1.51 -55.65,5.45 -16.27,3.99 -30.67,8.74 -43.94,13.8 -26.433,9.96 -49.066,19.81 -69.406,25.02 -4.996,1.31 -9.922,2.51 -14.515,3.11 -2.364,0.42 -4.547,0.6 -6.778,0.88 l -5.468,0.38 c -9.762,-0.02 -19.067,-1.29 -27.411,-3.17 -16.754,-3.91 -29.375,-11.51 -36.273,-19.73 -6.859,-8.34 -9.211,-16.88 -8.691,-25.66 0.355,-17.73 11.488,-33.92 19.328,-43.36 2.195,-2.39 4.093,-4.58 5.64,-5.85 1.496,-1.41 2.824,-2.4 4.641,-4.31 3.234,-3.13 4.902,-4.74 4.902,-4.74 22.891,-22.09 23.535,-58.55 1.446,-81.44 -22.094,-22.89 -58.559,-23.53 -81.446,-1.44 -7.008,6.77 -12.011,15.16 -14.832,23.82" /></clipPath><clipPath
       id="clipPath9380"
       clipPathUnits="userSpaceOnUse"><path
         id="path9378"
         d="m 724.492,1308.56 c -29.394,98.9 40.821,222.48 221.676,326.3 180.852,103.82 569.352,247.83 756.902,355.01 187.55,107.17 532.51,385.15 659.77,338.26 127.27,-46.89 237.79,-254.54 50.24,-475.58 -187.55,-221.04 -448.78,-425.34 -887.52,-596.14 -438.73,-170.81 -737.79,-160.76 -801.068,52.15" /></clipPath><clipPath
       id="clipPath9638"
       clipPathUnits="userSpaceOnUse"><path
         id="path9636"
         d="m 6845.65,1571.13 c 0,0 132.4,-103.39 163.16,-187.25 0,0 -19.55,5.43 -31.16,-18.42 -11.6,-23.86 -19.78,-94.5 -64.71,-95.67 -44.92,-1.16 -67.77,4.66 -67.77,4.66 0,0 -38.67,-79.3 -67.81,-68.34 0,0 -173.83,177.09 -263.79,221.45 0,0 208.6,264.65 332.08,143.57" /></clipPath><clipPath
       id="clipPath9656"
       clipPathUnits="userSpaceOnUse"><path
         id="path9654"
         d="m 6248.17,1556.14 c 0,0 -116.97,-120.56 -135.95,-207.86 0,0 18.62,8.07 33.39,-13.97 14.76,-22.04 32.55,-90.89 77.21,-85.89 44.66,5.01 66.49,13.91 66.49,13.91 0,0 49.18,-73.26 76.54,-58.4 0,0 147.92,199.25 230.94,255.52 0,0 -242.9,233.56 -348.62,96.69" /></clipPath><clipPath
       id="clipPath9674"
       clipPathUnits="userSpaceOnUse"><path
         id="path9672"
         d="m 7008.81,1540.95 c 0,0 117.19,-107.82 133.76,-117.29 16.57,-9.47 101.07,17.04 101.89,45.21 0.83,28.17 0,68.96 0,68.96 0,0 94.95,-2.53 99.26,39.64 4.3,42.18 39.29,35.55 39.29,35.55 0,0 -64.89,138.8 -167.44,170.69 -102.55,31.89 -160.27,16.7 -160.27,16.7 l -148.01,-151.78 c 0,0 50.17,-60.96 101.52,-107.68" /></clipPath><clipPath
       id="clipPath9690"
       clipPathUnits="userSpaceOnUse"><path
         id="path9688"
         d="m 5918.4,1696.37 c 0,0 -116.55,-108.51 -133.06,-118.07 -16.51,-9.57 -101.17,16.44 -102.16,44.6 -1,28.17 -0.41,68.96 -0.41,68.96 0,0 -94.93,-3.09 -99.49,39.06 -4.55,42.15 -39.5,35.31 -39.5,35.31 0,0 64.07,139.18 166.43,171.68 102.36,32.49 160.17,17.65 160.17,17.65 l 148.91,-150.9 c 0,0 -49.81,-61.26 -100.89,-108.29" /></clipPath></defs><g
     transform="matrix(1.3333333,0,0,-1.3333333,0,1066.6667)"
     id="g5414"><g
       transform="matrix(0.1,0,0,0.1,-4.0955631,-4.0955631)"
       id="g5416"><g
         id="g5418"><g
           clip-path="url(#clipPath5424)"
           id="g5420" /></g><path
         id="path6734"
         style="fill:#969998;fill-opacity:1;fill-rule:nonzero;stroke:none;stroke-width:2.59316492"
         d="m 6604.0643,3186.7668 0.1774,4.1836 c 0,442.5823 -1202.0112,801.341 -2684.7727,801.341 -1482.7615,0 -2684.7727,-358.7587 -2684.7727,-801.341 l 0.1774,-4.1836 -0.1774,-4.2138 0.1774,-4.1837 -0.1774,-4.2139 0.1774,-4.1836 -0.1774,-4.2139 0.1774,-4.1836 -0.1774,-4.2139 0.1774,-4.1836 -0.1774,-4.214 0.1774,-4.1835 -0.1774,-4.2139 0.1774,-4.1837 -0.1774,-4.2139 0.1774,-4.1835 -0.1774,-4.214 0.1774,-4.1836 -0.1774,-4.2139 0.1774,-4.1836 -0.1774,-4.2139 0.1774,-4.1836 -0.1774,-4.2139 0.1774,-4.1837 -0.1774,-4.2138 0.1774,-4.1836 -0.1774,-4.1836 0.1774,-4.214 -0.1774,-4.2138 0.1774,-4.1836 -0.1774,-4.214 0.1774,-4.1836 -0.1774,-4.1836 0.1774,-4.2138 -0.1774,-4.1837 0.1774,-4.2139 -0.1774,-4.1836 0.1774,-4.2139 -0.1774,-4.2139 0.1774,-4.1836 -0.1774,-4.1836 0.1774,-4.2139 -0.1774,-4.1836 c 0,-442.5823 1202.0112,-801.3411 2684.7727,-801.3411 1482.7615,0 2684.7727,358.7588 2684.7727,801.3411 l -0.1774,4.1836 0.1774,4.2139 -0.1774,4.1836 0.1774,4.1836 -0.1774,4.2139 0.1774,4.2139 -0.1774,4.1836 0.1774,4.2139 -0.1774,4.1837 0.1774,4.2138 -0.1774,4.1836 0.1774,4.1836 -0.1774,4.214 0.1774,4.1836 -0.1774,4.2138 0.1774,4.214 -0.1774,4.1836 0.1774,4.1836 -0.1774,4.2138 0.1774,4.1837 -0.1774,4.2139 0.1774,4.1836 -0.1774,4.2139 0.1774,4.1836 -0.1774,4.2139 0.1774,4.1836 -0.1774,4.214 0.1774,4.1835 -0.1774,4.2139 0.1774,4.1837 -0.1774,4.2139 0.1774,4.1835 -0.1774,4.214 0.1774,4.1836 -0.1774,4.2139 0.1774,4.1836 -0.1774,4.2139 0.1774,4.1836 -0.1774,4.2139 0.1774,4.1837 -0.1774,4.2138" /><path
         id="path6736"
         style="fill:#e6e6e4;fill-opacity:1;fill-rule:nonzero;stroke:none;stroke-width:2.59316492"
         d="m 6604.2417,3193.3757 c 0,-476.2633 -1202.0112,-862.3366 -2684.7727,-862.3366 -1482.7615,0 -2684.7727,386.0733 -2684.7727,862.3366 0,476.233 1202.0112,862.3367 2684.7727,862.3367 1482.7615,0 2684.7727,-386.1037 2684.7727,-862.3367" /><path
         id="path6738"
         style="fill:#c9cbc8;fill-opacity:1;fill-rule:nonzero;stroke:none;stroke-width:2.59316492"
         d="m 1963.7996,3687.7679 c -283.7669,-84.2177 -341.0616,-225.9447 -269.9036,-477.8701 71.1359,-251.9253 726.5525,-713.7885 1774.1367,-619.2937 1047.562,94.4947 1333.3696,464.3793 1333.3696,464.3793 l 146.1978,-32.7109 c 0,0 174.6565,114.2911 354.8584,79.1549 180.1796,-35.1361 467.1628,-79.1549 467.1628,-79.1549 l 357.0766,429.7284 c 0,0 -125.0145,190.9904 -527.2302,276.3904 -402.1935,85.4303 -1724.7164,526.7089 -3635.6681,-40.6234" /><path
         id="path6740"
         style="fill:#a11b21;fill-opacity:1;fill-rule:nonzero;stroke:none;stroke-width:2.59316492"
         d="m 4434.1667,5017.3943 352.2853,107.8944 1135.822,51.0823 292.2845,-228.5517 -386.4447,-350.816 h -992.7961 l -401.151,420.391" /><path
         id="path6742"
         style="fill:#d5a313;fill-opacity:1;fill-rule:nonzero;stroke:none;stroke-width:2.59316492"
         d="m 5212.1801,5725.6957 c 0,0 55.0543,648.9428 146.5304,883.861 0,0 170.0871,9.0342 210.1246,0 40.0376,-9.0341 86.9069,-152.3073 86.9069,-152.3073 0,0 -152.1203,-434.6091 -192.3129,-927.5159 -40.1928,-492.937 -29.457,-890.4698 -29.457,-890.4698 l -109.3987,-80.9435 -112.3933,45.1707 c 0,0 -6.8762,750.6225 0,1122.2048" /><path
         id="path6744"
         style="fill:#e8b311;fill-opacity:1;fill-rule:nonzero;stroke:none;stroke-width:2.59316492"
         d="m 5568.8351,6583.8791 c 0,0 -226.1396,-657.7344 -228.0916,-857.9711 0,0 -40.6141,215.3643 -71.3353,260.5047 -3.9705,50.3852 77.7458,570.758 94.0935,597.4664 16.3699,26.7084 175.9874,0.4244 205.3334,0" /><path
         id="path6746"
         style="fill:#d5a313;fill-opacity:1;fill-rule:nonzero;stroke:none;stroke-width:2.59316492"
         d="m 5734.5081,6316.4017 c 0,0 -167.6693,-682.6239 -165.6508,-1233.9797 2.0185,-551.3256 14.7063,-608.1982 14.7063,-608.1982 l 152.342,32.9838 c 0,0 71.3354,929.547 269.6817,1683.1101 0,0 -132.6005,105.9238 -145.6432,104.4383 -13.0427,-1.4551 -125.436,21.6457 -125.436,21.6457" /><path
         id="path6748"
         style="fill:#e8b311;fill-opacity:1;fill-rule:nonzero;stroke:none;stroke-width:2.59316492"
         d="m 5752.9409,6278.2945 107.0032,-18.7656 c 0,0 -150.6119,-714.8193 -170.4199,-864.2162 0,0 3.9705,269.7815 -15.8597,282.302 -19.8079,12.4902 -19.8079,12.4902 -19.8079,12.4902 0,0 39.6381,342.1759 99.0843,588.1896" /><path
         id="path6750"
         style="fill:#d5a313;fill-opacity:1;fill-rule:nonzero;stroke:none;stroke-width:2.59316492"
         d="m 4974.1735,5127.6231 c 0,0 -376.8846,731.8569 -456.2054,849.3614 0,0 77.0139,115.8372 114.5227,166.3738 37.531,50.5366 137.547,0 137.547,0 0,0 292.6173,-504.0326 353.9711,-816.9537 61.3317,-312.9211 63.4389,-676.7728 63.4389,-676.7728 l -127.3435,-91.3116 c 0,0 19.8524,225.9143 -85.9308,569.3029" /><path
         id="path6752"
         style="fill:#e8b311;fill-opacity:1;fill-rule:nonzero;stroke:none;stroke-width:2.59316492"
         d="m 4544.4084,5970.1634 c 0,0 106.7147,146.6382 122.5745,141.8482 15.8597,-4.8202 309.6748,-611.4722 336.8914,-749.9554 0,0 -204.801,410.7808 -235.1674,423.5741 -30.3885,12.8236 -90.6554,-52.78 -90.6554,-52.78 0,0 -89.7682,170.709 -133.6431,237.3131" /><path
         id="path6754"
         style="fill:#d5a313;fill-opacity:1;fill-rule:nonzero;stroke:none;stroke-width:2.59316492"
         d="m 4830.8815,4673.4298 c 0,0 -360.5591,778.7859 -577.1829,1004.488 l -0.4879,177.3482 140.7411,87.613 c 0,0 451.9243,-589.2204 600.6729,-1236.4958 148.7708,-647.3058 -163.7432,-32.9534 -163.7432,-32.9534" /><path
         id="path6756"
         style="fill:#e8b311;fill-opacity:1;fill-rule:nonzero;stroke:none;stroke-width:2.59316492"
         d="m 4299.3702,5836.8036 87.8162,59.1767 c 0,0 200.0321,-246.7717 213.0082,-313.8912 l -45.3387,-98.1629 c 0,0 -143.536,244.983 -255.4857,352.8774" /><path
         id="path6758"
         style="fill:#d5a313;fill-opacity:1;fill-rule:nonzero;stroke:none;stroke-width:2.59316492"
         d="m 5893.194,5362.0562 c 0,0 171.8839,710.3022 304.1295,861.4271 0,0 119.0033,-22.4944 165.296,-57.6609 l 33.0503,-176.7116 c 0,0 -376.3743,-799.2794 -442.9852,-1069.3338 0,0 -133.887,-146.4259 -165.4733,-174.0134 -31.5864,-27.6179 79.5203,362.7907 105.9827,616.2926" /><path
         id="path6760"
         style="fill:#e8b311;fill-opacity:1;fill-rule:nonzero;stroke:none;stroke-width:2.59316492"
         d="m 6200.7838,6206.8096 c 0,0 124.704,-47.0807 145.6654,-56.8727 0,0 -216.0914,-441.976 -227.1599,-472.3222 0,0 -70.3816,49.5665 -96.7332,54.9021 -26.3293,5.3357 124.7262,377.5546 178.2277,474.2928" /><path
         id="path6762"
         style="fill:#d5a313;fill-opacity:1;fill-rule:nonzero;stroke:none;stroke-width:2.59316492"
         d="m 5159.2996,4522.5474 c 0,0 -79.3429,653.763 -224.8087,950.1922 l 152.0758,137.028 h 99.1732 c 0,0 244.6167,-897.4728 152.0757,-1485.0258 l -99.1952,-63.7242 -92.0086,3.3045 c 0,0 37.7749,283.3326 12.6878,458.2253" /><path
         id="path6764"
         style="fill:#e8b311;fill-opacity:1;fill-rule:nonzero;stroke:none;stroke-width:2.59316492"
         d="m 5113.007,5395.3127 c 0,0 -191.7362,704.1482 -277.6893,828.1706 0,0 99.1732,103.9836 138.8558,141.1207 39.6603,37.137 172.4383,0 172.4383,0 0,0 138.3012,-476.9302 184.5716,-784.6673 46.2927,-307.737 81.4946,-939.7938 81.4946,-939.7938 l -88.1046,-165.9191 -85.953,48.3236 c 0,0 -46.3149,595.7384 -125.6134,872.7653" /><path
         id="path6766"
         style="fill:#f1e728;fill-opacity:1;fill-rule:nonzero;stroke:none;stroke-width:2.59316492"
         d="m 4875.0003,6195.2592 124.9035,123.2646 c 0,0 308.0556,-803.5541 324.4477,-1547.4767 0,0 -84.977,-79.0337 -85.8199,-51.234 -0.8207,27.7695 -29.4125,675.4996 -363.5313,1475.4461" /><path
         id="path6768"
         style="fill:#e8b311;fill-opacity:1;fill-rule:nonzero;stroke:none;stroke-width:2.59316492"
         d="m 5397.3063,4474.2238 c 0,0 77.8567,581.0958 -33.8046,1249.7742 l 225.5408,-46.3227 66.1227,-67.9077 c 0,0 13.2202,-839.8422 -85.9529,-1194.1445 l -171.906,58.6007" /><path
         id="path6770"
         style="fill:#f1e728;fill-opacity:1;fill-rule:nonzero;stroke:none;stroke-width:2.59316492"
         d="m 5398.2156,5677.6147 c 0,0 148.8152,-18.9475 170.6195,-35.5304 -6.1442,-27.7996 10.1148,-845.2687 0,-897.7153 -10.0925,-52.4465 -123.0625,-25.0409 -123.0625,-25.0409 0,0 14.0409,764.5981 -47.557,958.2866" /><path
         id="path6772"
         style="fill:#e8b311;fill-opacity:1;fill-rule:nonzero;stroke:none;stroke-width:2.59316492"
         d="m 5000.6137,4522.5474 c 0,0 -132.2456,652.52 -429.7651,872.7653 0,0 24.1334,174.4379 61.6422,233.4933 37.531,59.0554 137.547,95.192 137.547,95.192 0,0 279.6412,-362.7301 402.4819,-994.6354 122.8407,-631.9052 36.5994,-651.7924 36.5994,-651.7924 l -129.1624,-16.5526 -52.9027,87.4918 c 0,0 30.4106,158.1886 -26.4403,374.038" /><path
         id="path6774"
         style="fill:#f1e728;fill-opacity:1;fill-rule:nonzero;stroke:none;stroke-width:2.59316492"
         d="m 4600.1946,5427.6598 c 0,0 17.7895,161.3414 44.2742,182.1078 26.4845,20.7664 345.0985,-401.3223 409.713,-867.3994 0,0 -48.3999,-71.1212 -74.1081,-55.266 -25.6861,15.8552 -105.8276,456.4671 -379.8791,740.5576" /><path
         id="path6776"
         style="fill:#e8b311;fill-opacity:1;fill-rule:nonzero;stroke:none;stroke-width:2.59316492"
         d="m 5919.6343,5723.998 c 0,0 -363.6422,-682.9876 -350.422,-1308.3749 l 132.2234,-68.4534 c 0,0 105.8053,511.2478 178.5161,722.6409 72.7328,211.4233 271.0791,539.957 271.0791,539.957 0,0 -132.2235,132.329 -231.3966,114.2304" /><path
         id="path6778"
         style="fill:#f1e728;fill-opacity:1;fill-rule:nonzero;stroke:none;stroke-width:2.59316492"
         d="m 5931.2796,5714.9335 c 0,0 95.1361,-1.0913 91.1656,-37.3188 -3.9705,-36.2579 -285.364,-640.6666 -325.0022,-842.2372 0,0 -29.3238,44.2309 -43.5864,76.093 -14.2627,31.862 83.2246,418.572 277.423,803.463" /><path
         id="path6780"
         style="fill:#e8b311;fill-opacity:1;fill-rule:nonzero;stroke:none;stroke-width:2.59316492"
         d="m 4822.3859,4529.035 c 0,0 -320.5436,604.4693 -585.6782,718.9726 0,0 54.7659,231.2499 76.5259,265.8101 l 148.8373,-11.8535 c 0,0 485.3739,-564.7556 589.2051,-1116.7177 l -51.4387,-100.4367 -86.4853,32.4078 c 0,0 1.3087,51.9918 -90.9661,211.8174" /><path
         id="path6782"
         style="fill:#f1e728;fill-opacity:1;fill-rule:nonzero;stroke:none;stroke-width:2.59316492"
         d="m 4282.5345,5267.4704 c 0,0 26.0631,178.864 50.6846,189.7171 24.6213,10.8229 424.2862,-364.3065 493.9581,-694.0528 0,0 -169.6436,105.5903 -200.5867,123.5677 -30.943,17.9772 -70.5812,196.4472 -344.056,380.768" /><path
         id="path6784"
         style="fill:#e8b311;fill-opacity:1;fill-rule:nonzero;stroke:none;stroke-width:2.59316492"
         d="m 5723.1069,4448.8191 c 0,0 70.8919,700.874 579.9998,1137.1505 l 112.3933,-32.4986 26.4624,-158.1583 c 0,0 -310.7617,-303.8566 -495.8879,-836.9925 l -222.9676,-109.5011" /><path
         id="path6786"
         style="fill:#f1e728;fill-opacity:1;fill-rule:nonzero;stroke:none;stroke-width:2.59316492"
         d="m 5859.9441,4899.3138 c 0,0 165.4734,449.5246 453.8098,660.7963 l 68.3631,-18.4624 c 0,0 -347.7826,-347.1174 -448.8411,-684.3518 0,0 -96.1121,-14.0969 -73.3318,42.0179" /><path
         id="path6788"
         style="fill:#ef3530;fill-opacity:1;fill-rule:nonzero;stroke:none;stroke-width:2.59316492"
         d="m 4434.1667,5017.3943 420.9812,-353.7566 1004.7962,9.8527 354.6144,274.3289 -189.629,-1537.2906 -301.8226,-298.6725 c 0,0 -398.7554,150.1548 -747.8244,10.5196 -59.5128,27.1025 -291.8632,313.1332 -291.8632,313.1332 l -249.2526,1581.8853" /><path
         id="path6790"
         style="fill:#f8a3ac;fill-opacity:1;fill-rule:nonzero;stroke:none;stroke-width:2.59316492"
         d="m 5398.2156,4204.2301 c -124.837,37.5918 -175.3662,360.5474 -326.9763,325.6841 -151.5879,-34.833 -190.6272,-192.9609 -190.6272,-192.9609 l 20.8728,-267.8413 3.2163,0.7579 c 83.136,248.5906 252.7351,157.7035 333.8304,-28.1028 81.0953,-185.7761 231.0195,-204.2081 330.3035,-32.1956 99.2841,171.9823 257.0606,275.2383 257.0606,275.2383 v 0 l 21.4716,245.1044 c -210.7458,26.1019 -324.3146,-363.2758 -449.1517,-325.6841" /><path
         id="path6792"
         style="fill:#ffffff;fill-opacity:1;fill-rule:nonzero;stroke:none;stroke-width:2.59316492"
         d="m 4880.6121,4336.9533 c 0,0 -100.6814,-68.7566 -189.8507,192.9609 -89.1693,261.7477 -208.5053,182.2593 -208.5053,182.2593 l 0.022,-0.1213 36.1113,-229.249 c 88.4152,46.8987 116.0089,-153.914 186.324,-302.3408 64.2374,-135.6031 177.2962,-115.8978 196.7714,-111.3504 l -20.8727,267.8413" /><path
         id="path6794"
         style="fill:#f46f29;fill-opacity:1;fill-rule:nonzero;stroke:none;stroke-width:2.59316492"
         d="m 4704.7135,4180.4624 c -70.3151,148.4268 -97.9088,349.2395 -186.324,302.3408 L 4683.4193,3435.509 c 232.2617,-291.3057 291.8632,-313.1332 291.8632,-313.1332 l -73.7976,946.7362 c -19.4753,-4.5474 -132.534,-24.2527 -196.7714,111.3504" /><path
         id="path6796"
         style="fill:#f46f29;fill-opacity:1;fill-rule:nonzero;stroke:none;stroke-width:2.59316492"
         d="m 4690.7614,4529.9142 c 89.1693,-261.7175 189.8507,-192.9609 189.8507,-192.9609 l -25.4642,326.6844 -420.9812,353.7566 48.1115,-305.3421 -0.022,0.1213 c 0,0 119.3361,79.4884 208.5054,-182.2593" /><path
         id="path6798"
         style="fill:#c31e25;fill-opacity:1;fill-rule:nonzero;stroke:none;stroke-width:2.59316492"
         d="m 5992.7222,4105.7033 c -62.4186,-40.6536 -125.5913,167.2833 -166.8265,179.1065 l -102.7888,-1172.9536 301.8226,298.6725 123.2622,999.3647 c 0,0 -93.051,-263.5364 -155.4695,-304.1901" /><path
         id="path6800"
         style="fill:#c31e25;fill-opacity:1;fill-rule:nonzero;stroke:none;stroke-width:2.59316492"
         d="m 5968.8327,4365.6928 c 23.8895,-146.2441 123.6171,236.6461 204.5349,248.3178 l -13.0205,-105.6208 54.2114,439.4295 -354.6144,-274.3289 -12.5768,-143.5762 c 0,0 97.576,-17.9774 121.4654,-164.2214" /><path
         id="path6802"
         style="fill:#f46d7b;fill-opacity:1;fill-rule:nonzero;stroke:none;stroke-width:2.59316492"
         d="m 6173.3676,4614.0106 c -80.9178,-11.6717 -180.6454,-394.5619 -204.5349,-248.3178 -23.8894,146.244 -121.4654,164.2214 -121.4654,164.2214 l -21.4716,-245.1044 c 41.2352,-11.8232 104.4079,-219.7601 166.8265,-179.1065 62.4185,40.6537 155.4695,304.1597 155.4695,304.1597 l 12.1554,98.5268 13.0205,105.6208" /><path
         id="path6804"
         style="fill:#f58032;fill-opacity:1;fill-rule:nonzero;stroke:none;stroke-width:2.59316492"
         d="m 1749.0391,3922.5648 c 0,0 -45.3167,-93.8581 -54.167,-204.299 -8.8726,-110.4713 -16.3256,-287.5164 27.0835,-397.8057 43.3869,-110.259 277.2012,-618.7785 1423.7145,-625.3268 1161.0421,-6.6391 1511.3977,466.6229 1542.0303,564.5737 56.8953,181.9865 40.1261,634.4215 1.2865,662.8578 -38.8175,28.4363 -962.1192,95.3133 -1582.5557,120.718 -620.4144,25.3745 -1089.4184,58.5098 -1357.3921,-120.718" /><path
         id="path6806"
         style="fill:#ec6221;fill-opacity:1;fill-rule:nonzero;stroke:none;stroke-width:2.59316492"
         d="m 2456.8483,2840.4376 c -192.3352,46.7169 -510.3059,212.4237 -657.3465,435.2762 -147.0407,222.8524 -45.5385,269.4783 76.1266,164.9187 121.6429,-104.5597 533.1527,-353.8173 1174.5507,-375.4325 641.4201,-21.6456 1333.0147,212.6358 1566.8513,522.0706 0,0 58.7142,45.0191 60.0894,-46.2015 1.3531,-91.2509 9.2718,-243.3157 -60.0894,-321.652 -69.3614,-78.3364 -755.344,-720.2459 -2160.1821,-378.9795" /><path
         id="path6808"
         style="fill:#fbca69;fill-opacity:1;fill-rule:nonzero;stroke:none;stroke-width:2.59316492"
         d="m 1816.027,3914.622 c -142.7374,-47.4444 -6.0112,-199.206 207.7512,-349.9368 213.7845,-150.7308 618.0853,-295.7016 968.8844,-288.7289 350.7992,7.003 820.3355,13.8544 1149.9737,153.7321 329.6603,139.8777 355.1024,275.3293 393.942,383.3752 38.8397,108.0157 -2348.9016,225.1262 -2720.5513,101.5584" /><path
         id="path6810"
         style="fill:#dfeb36;fill-opacity:1;fill-rule:nonzero;stroke:none;stroke-width:2.59316492"
         d="m 2342.1481,3533.4598 c 0,0 370.2079,-440.6421 466.8968,-619.9001 0,0 404.3672,529.5283 463.88,619.9001 59.5128,90.3718 -782.5161,50.3851 -930.7768,0" /><path
         id="path6812"
         style="fill:#ffffff;fill-opacity:1;fill-rule:nonzero;stroke:none;stroke-width:2.59316492"
         d="m 2809.5107,3012.3896 c -25.4643,75.3351 -80.6073,137.9375 -122.7077,196.2956 -43.3869,60.1772 -87.4613,118.9294 -147.7947,143.8491 -3.6378,1.4855 -6.0778,-5.0931 -4.1924,-8.8826 34.3147,-68.4836 79.9641,-123.4161 121.4433,-183.5326 40.0596,-58.1156 79.6535,-137.5737 133.3104,-172.3157 10.7579,-6.9423 25.4864,8.1853 19.9411,24.5862" /><path
         id="path6814"
         style="fill:#fddfe0;fill-opacity:1;fill-rule:nonzero;stroke:none;stroke-width:2.59316492"
         d="m 3936.2825,3580.2979 c 0,0 39.6826,-247.4993 171.9061,-188.5651 132.2456,58.9039 162.9002,111.5627 203.7585,94.2826 40.8804,-17.2801 173.1038,57.8125 206.1763,160.3107 0,0 275.3602,246.7716 101.3026,328.2608 -174.0354,81.4893 -597.1904,-255.6239 -683.1435,-394.289" /><path
         id="path6816"
         style="fill:#fddfe0;fill-opacity:1;fill-rule:nonzero;stroke:none;stroke-width:2.59316492"
         d="m 2532.2872,3512.5418 c 0,0 -43.3203,-148.0933 107.2694,-188.5651 150.5897,-40.4717 249.7628,-67.6045 309.2756,-112.7752 59.4905,-45.1708 148.0388,33.0443 196.8379,65.0883 0,0 232.9049,-57.6003 246.125,78.7304 13.2424,136.3004 -641.3314,341.3878 -859.5079,157.5216" /><path
         id="path6818"
         style="fill:#ffffff;fill-opacity:1;fill-rule:nonzero;stroke:none;stroke-width:2.59316492"
         d="m 2761.6875,3390.308 c -21.9374,29.2548 -43.9192,46.4743 -75.0841,41.9269 -28.8802,-4.2139 -57.6939,-10.7318 -85.5094,-22.1306 -10.9797,-4.4868 -14.4401,-25.1319 -5.6119,-35.3787 19.6971,-22.9189 44.3407,-30.0128 69.5831,-32.1955 8.5177,-0.7276 26.9727,7.579 32.3628,4.8202 10.0481,-5.184 18.8319,-21.1605 28.503,-28.5576 32.6955,-25.041 60.9546,37.9252 35.7565,71.5153" /><path
         id="path6820"
         style="fill:#ffffff;fill-opacity:1;fill-rule:nonzero;stroke:none;stroke-width:2.59316492"
         d="m 3075.1554,3331.2829 c -19.3422,23.8283 -46.8028,27.0418 -67.0545,16.4312 -13.6416,5.8509 -28.5918,5.6085 -44.5846,-1.0914 -13.7747,-5.7903 -20.7174,-17.5226 -23.8673,-31.5891 -39.9708,9.7314 -75.7495,42.8666 -119.4691,25.2228 -11.8449,-4.7597 -9.4049,-25.9807 0.9982,-30.4069 53.9674,-22.8885 90.5223,-82.7018 150.4122,-80.3979 13.2423,0.5154 21.8931,11.126 25.8636,25.132 14.7949,-19.857 36.4884,-15.4915 48.7991,-0.1516 27.7712,-8.64 55.4535,44.2309 28.9024,76.8509" /><path
         id="path6822"
         style="fill:#fddfe0;fill-opacity:1;fill-rule:nonzero;stroke:none;stroke-width:2.59316492"
         d="m 1771.9525,3973.5258 c 0,0 -136.1939,-92.3423 -107.7574,-225.3989 28.4145,-133.0566 87.9272,-202.5407 180.4903,-190.384 92.563,12.1567 187.7435,-60.1166 242.6203,-123.3859 54.899,-63.2693 154.0722,-66.028 206.9749,57.3578 52.8805,123.3555 -465.4772,535.1974 -522.3281,481.811" /><path
         id="path6824"
         style="fill:#ffffff;fill-opacity:1;fill-rule:nonzero;stroke:none;stroke-width:2.59316492"
         d="m 2153.5617,3489.3805 c 0.8429,20.5238 -3.904,37.1976 -11.8892,50.3244 -9.0723,22.6763 -26.3738,42.988 -39.6826,55.2963 -23.7342,21.9487 -59.1801,12.763 -74.7292,-16.795 -20.6066,30.619 -51.7493,31.4376 -79.1878,49.0511 -33.4496,21.4334 -72.4445,11.9141 -107.7351,13.2481 -8.2293,0.3031 -10.4252,-13.9757 -5.4566,-20.8271 20.2073,-27.7997 57.5608,-16.4312 83.8679,-21.6455 32.0522,-6.3361 63.4167,-47.3839 90.2784,-70.2723 4.525,-3.8199 9.0501,-4.3352 13.1315,-2.7892 7.2311,-35.8637 29.6121,-56.2057 55.3869,-66.1493 13.7969,-13.4906 29.59,-21.2212 44.9396,-17.0679 4.9908,1.3642 7.7191,5.1537 8.9835,9.7315 13.331,3.365 21.3607,19.9781 22.0927,37.8949" /><path
         id="path6826"
         style="fill:#ffffff;fill-opacity:1;fill-rule:nonzero;stroke:none;stroke-width:2.59316492"
         d="m 1796.5073,3677.3999 c -10.4918,29.7095 -37.3091,43.0183 -50.9729,71.5152 -14.1074,29.4368 -2.329,71.9397 13.0205,96.1622 5.4344,8.5794 3.0833,20.0691 -3.5268,25.7382 -45.3167,38.6528 -71.4908,-58.3885 -70.3151,-103.8321 1.4417,-56.4179 48.4442,-144.7889 93.8496,-137.028 18.2109,3.1226 25.5751,25.8292 17.9447,47.4445" /><path
         id="path6828"
         style="fill:#462e22;fill-opacity:1;fill-rule:nonzero;stroke:none;stroke-width:2.59316492"
         d="m 1666.1693,4392.007 c 0,0 -19.8524,-296.5808 66.1007,-441.0059 85.953,-144.3947 145.4657,-270.9031 238.0288,-279.9373 92.563,-9.0341 165.2959,-56.9939 218.1765,-114.3517 52.9026,-57.3577 198.3462,-48.3235 224.8086,-39.2894 0,0 138.8335,-128.0545 284.2993,-54.9931 0,0 105.7832,-108.0156 198.3463,-94.2825 92.563,13.7331 132.2456,31.4376 218.1764,0 85.953,-31.4376 271.0792,-22.4035 383.4946,49.9 0,0 145.4436,-19.6448 224.7866,44.3825 79.3429,64.0272 171.906,-0.7883 251.2489,0 79.343,0.7882 234.3468,75.8807 292.3733,160.3106 0,0 110.9293,-33.014 190.2723,48.3236 79.3429,81.3074 136.5266,138.8167 193.8878,200.4187 57.3612,61.6322 103.8978,157.4003 80.6295,312.83 -23.2683,155.4298 -40.0153,348.6029 -433.2032,343.7524 C 3904.43,4523.184 1736.4844,4832.9825 1666.1693,4392.007" /><g
         transform="matrix(2.2181422,0,0,3.0315931,-10437.168,-15257.112)"
         id="g6830"><g
           clip-path="url(#clipPath6836)"
           id="g6832"><path
             id="path6838"
             style="fill:#2d1a13;fill-opacity:1;fill-rule:nonzero;stroke:none"
             d="m 5469.1,6374.36 c 0,0 56.19,-82.26 101.8,-92.05 45.61,-9.8 96.52,-7.49 123.33,-34.11 26.8,-26.61 93.55,-20.86 93.55,-20.86 0,0 72.13,-19.41 124.64,-0.52 0,0 120.11,-52.39 168.05,-34.17 0,0 133.33,-26.26 181.77,0 0,0 104.5,-15.53 140.79,22.79 0,0 164.18,-29.07 207.45,32.76 0,0 155.63,42.36 166.54,68.96 10.91,26.6 52.21,73.17 58.27,47.76 6.06,-25.41 -96.65,-152.02 -179.31,-169.12 -82.65,-17.1 -680.9,-118.41 -785.14,-87.85 -104.24,30.55 -444.63,167.24 -401.74,266.41" /></g></g><path
         id="path6840"
         style="fill:#351e17;fill-opacity:1;fill-rule:nonzero;stroke:none;stroke-width:2.59316492"
         d="m 1689.8812,4063.5035 c 0,0 274.0958,177.1058 358.6958,191.7484 0,0 -97.7092,-166.9803 -92.3413,-242.4366 5.3679,-75.4866 271.7003,-344.9044 343.0357,-327.9274 71.3355,17.0072 129.5173,128.2364 171.7064,136.1792 42.2113,7.9427 301.6451,-77.336 369.121,-18.129 67.4538,59.2071 68.7181,260.5654 68.7181,260.5654 0,0 324.4254,-437.0647 349.5791,-441.8547 25.176,-4.7595 262.2289,402.7775 262.2289,402.7775 0,0 85.1322,-283.2114 122.1087,-339.5384 36.9764,-56.2967 158.8633,59.9649 201.9618,103.4076 0,0 529.404,66.1797 566.0033,171.5276 36.5773,105.3175 -59.3352,271.661 -59.3352,271.661 8.2736,-3.7895 448.1978,-400.5947 278.8426,-168.9203 -45.738,62.572 134.7077,138.5437 -202.7825,437.3072 -337.5126,298.7332 -2390.9799,315.407 -2737.5424,-436.3675" /><path
         id="path6842"
         style="fill:#89644f;fill-opacity:1;fill-rule:nonzero;stroke:none;stroke-width:2.59316492"
         d="m 2807.2925,3697.6509 c -25.7304,21.1302 -53.1467,40.593 -80.7625,56.812 -28.9468,16.9769 -70.9362,-1.6067 -101.2138,2.4557 -31.298,4.2138 -65.3244,22.07 -95.3358,34.1357 -28.2148,11.3381 -62.4629,-3.3651 -89.9013,-11.0047 -9.782,-2.7284 -9.1388,-25.6776 0.9094,-26.9812 27.2832,-3.6076 54.7438,-1.7886 81.9604,-6.5179 31.2092,-5.4266 63.7272,-28.7395 94.4485,-39.7442 13.6638,-4.9112 32.407,-5.851 45.982,-1.6674 58.0267,17.8258 86.5298,16.2191 140.8964,-15.643 3.9705,-2.304 6.721,5.1234 3.0167,8.155" /><path
         id="path6844"
         style="fill:#89644f;fill-opacity:1;fill-rule:nonzero;stroke:none;stroke-width:2.59316492"
         d="m 3193.0718,3728.361 c -35.3128,42.0178 -83.4465,9.1857 -126.2345,25.1924 -53.9008,20.1299 -87.6831,-4.0926 -142.4269,-10.9743 -7.0536,-0.8792 -7.7191,-13.9453 -1.0203,-16.5525 19.2535,-7.5184 35.1576,-8.7613 55.4092,-8.246 35.2684,0.8792 63.3279,-13.3389 95.8459,-29.0426 32.7176,-15.7946 87.8162,-6.0631 117.1622,17.4923 5.7007,4.5777 6.1443,16.3706 1.2644,22.1307" /><path
         id="path6846"
         style="fill:#89644f;fill-opacity:1;fill-rule:nonzero;stroke:none;stroke-width:2.59316492"
         d="m 3612.7443,3737.8498 c -36.4219,24.2224 -80.0084,-3.0922 -118.5153,-8.7309 -46.2705,-6.8212 -90.9882,3.0315 -137.1034,-12.4902 -5.1904,-1.7584 -4.4807,-12.3386 0.4436,-13.7331 18.0557,-5.1841 34.1816,-6.5483 52.7696,-6.1845 28.9468,0.5457 56.5848,-7.8215 85.221,-9.4283 37.1983,-2.0615 85.5538,1.1218 118.0274,27.7088 6.2773,5.1234 5.6119,18.5837 -0.8429,22.8582" /><path
         id="path6848"
         style="fill:#89644f;fill-opacity:1;fill-rule:nonzero;stroke:none;stroke-width:2.59316492"
         d="m 4085.7409,3818.5205 c -49.5755,16.5222 -96.5114,2.1221 -143.913,-20.0691 -53.9896,-25.2835 -114.2787,-19.2204 -169.6657,-36.3488 -8.9391,-2.7588 -7.6083,-21.2515 0.7763,-23.5556 100.8146,-27.83 217.1562,20.8271 313.5344,57.8732 8.2959,3.2134 7.1424,19.4629 -0.732,22.1003" /><path
         id="path6850"
         style="fill:#89644f;fill-opacity:1;fill-rule:nonzero;stroke:none;stroke-width:2.59316492"
         d="m 4258.7117,3886.4282 c -25.2868,-7.6093 -51.4388,-8.8219 -76.4594,-18.2199 -9.4493,-3.5469 -7.7191,-21.3424 0.8207,-24.5255 22.0261,-8.246 44.6069,-9.6405 67.2984,-7.094 15.5048,1.728 45.1614,7.7609 44.2519,36.2578 -0.7319,24.0406 -25.9743,16.5526 -35.9116,13.5816" /><path
         id="path6852"
         style="fill:#89644f;fill-opacity:1;fill-rule:nonzero;stroke:none;stroke-width:2.59316492"
         d="m 1853.7354,4057.1676 c -12.111,15.9764 -19.9189,32.5592 -35.2906,43.7458 -15.7266,11.4898 -35.5125,11.7929 -51.7049,2.7891 -12.222,-6.7908 -15.0612,-29.8006 -2.3735,-38.8954 14.8838,-10.6712 30.3886,-18.7049 41.4349,-36.8945 9.5602,-15.7642 17.5455,-29.3154 30.3221,-40.5323 15.8152,-13.9454 58.6698,-23.404 65.5682,11.5807 8.8061,44.5947 -33.4496,39.0469 -47.9562,58.2066" /><path
         id="path6854"
         style="fill:#89644f;fill-opacity:1;fill-rule:nonzero;stroke:none;stroke-width:2.59316492"
         d="m 1943.4371,3955.3666 c -9.3606,0.1213 -8.6508,-19.6447 0.6432,-19.7963 3.9483,-0.06 6.6766,-3.3347 10.6249,-4.1836 3.5934,-0.7882 5.7894,3.2438 5.1904,7.7609 -1.5526,12.0354 -8.2514,16.0977 -16.4585,16.219" /><path
         id="path6856"
         style="fill:#89644f;fill-opacity:1;fill-rule:nonzero;stroke:none;stroke-width:2.59316492"
         d="m 4396.5026,3944.7863 c -11.135,-4.3655 -57.3833,-31.8619 -46.5588,-54.6595 13.4641,-28.3757 47.6901,-11.126 63.0175,6.6088 16.1259,18.6443 6.2773,56.903 -16.4587,48.0507" /><path
         id="path6858"
         style="fill:#89644f;fill-opacity:1;fill-rule:nonzero;stroke:none;stroke-width:2.59316492"
         d="m 4501.4652,4005.9639 c -9.2497,5.6994 -16.9688,-6.8817 -23.2018,-14.976 -4.9909,-6.4876 3.1719,-16.6738 8.0297,-9.7921 4.9908,7.003 10.8023,11.9748 16.0371,18.4321 l -0.865,6.336" /><path
         id="path6860"
         style="fill:#b4492d;fill-opacity:1;fill-rule:nonzero;stroke:none;stroke-width:2.59316492"
         d="m 2307.5007,4517.6059 c 0,0 -291.3085,-244.2555 -304.3513,-468.5933 0,0 132.4453,-211.2717 271.2788,-235.8883 0,0 66.1228,164.8277 145.4658,137.8768 79.3429,-26.9205 211.5664,-90.1899 277.6892,-54.0533 66.1228,36.1669 182.8636,354.8784 277.6892,450.7979 94.8256,95.9196 -503.119,197.9933 -667.7717,169.8602" /><g
         transform="matrix(2.2181422,0,0,3.0315931,-10437.168,-15257.112)"
         id="g6862"><g
           clip-path="url(#clipPath6868)"
           id="g6864"><path
             id="path6870"
             style="fill:#9a321e;fill-opacity:1;fill-rule:nonzero;stroke:none"
             d="m 5653.18,6448.38 c 0,0 188.62,-68.64 351.29,-29.03 l 30.43,45.58 -363.88,9.1 -17.84,-25.65" /><path
             id="path6872"
             style="fill:#9a321e;fill-opacity:1;fill-rule:nonzero;stroke:none"
             d="m 5730.74,6290.5 c 0,0 50,85.75 30.53,109.7 -19.47,23.95 -84.98,-95.09 -84.98,-95.09 0,0 35.57,-9.12 54.45,-14.61" /><path
             id="path6874"
             style="fill:#e1604a;fill-opacity:1;fill-rule:nonzero;stroke:none"
             d="m 5671.02,6347.9 c -19.62,8.29 25.47,69.67 42.21,65.04 16.74,-4.63 -26.11,-71.85 -42.21,-65.04" /><path
             id="path6876"
             style="fill:#e1604a;fill-opacity:1;fill-rule:nonzero;stroke:none"
             d="m 5796.32,6335.98 c 0,0 42.18,64.22 90.69,64.22 26.99,0 -37.12,-77.47 -37.12,-77.47 l -53.57,13.25" /></g></g><path
         id="path6878"
         style="fill:#b4492d;fill-opacity:1;fill-rule:nonzero;stroke:none;stroke-width:2.59316492"
         d="m 3295.5722,4372.0287 c 0,0 327.6417,-317.4077 380.5444,-558.9044 0,0 79.2986,-6.5179 168.5788,101.9222 0,0 62.8178,-18.0987 168.601,0 105.7832,18.0682 244.6389,84.3085 251.249,123.4768 6.61,39.1681 0,382.9508 -218.1765,446.0079 -218.1986,63.0571 -556.1104,163.7363 -750.7967,-112.5025" /><g
         transform="matrix(2.2181422,0,0,3.0315931,-10437.168,-15257.112)"
         id="g6880"><g
           clip-path="url(#clipPath6886)"
           id="g6882"><path
             id="path6888"
             style="fill:#9a321e;fill-opacity:1;fill-rule:nonzero;stroke:none"
             d="m 6216.14,6456.01 51.36,-43.07 c 0,0 217.63,-38.01 347.24,27.59 0,0 -11.59,14.7 -31.08,44.42 -19.49,29.72 -326.21,-29.27 -367.52,-28.94" /><path
             id="path6890"
             style="fill:#e1604a;fill-opacity:1;fill-rule:nonzero;stroke:none"
             d="m 6438.66,6324.12 c 0,0 -20.78,52.74 -65.45,58.63 -44.67,5.9 29.99,-86.63 29.99,-86.63 0,0 16.92,11.7 35.46,28" /><path
             id="path6892"
             style="fill:#9a321e;fill-opacity:1;fill-rule:nonzero;stroke:none"
             d="m 6446.98,6343.86 c -20.8,20.46 -5.91,52.97 16.45,29.23 22.35,-23.75 7.28,-52.57 -16.45,-29.23" /></g></g><path
         id="path6894"
         style="fill:#dfeb36;fill-opacity:1;fill-rule:nonzero;stroke:none;stroke-width:2.59316492"
         d="m 2697.5832,4350.5954 c 0,0 336.1816,-359.2437 465.6102,-537.4711 0,0 310.2072,337.5679 420.3601,558.9044 110.1308,221.3367 -700.8442,784.637 -885.9703,-21.4333" /><path
         id="path6896"
         style="fill:#ecf277;fill-opacity:1;fill-rule:nonzero;stroke:none;stroke-width:2.59316492"
         d="m 2841.1635,4231.4841 c -21.4272,-2.7588 283.3455,-332.0504 300.8245,-337.4769 17.479,-5.4266 244.8829,333.6874 254.0438,337.4769 0,0 -173.6583,35.5 -193.2223,60.2681 -19.5641,24.7682 -23.1131,44.0794 -23.1131,44.0794 0,0 -289.4454,-98.0418 -338.5329,-104.3475" /><path
         id="path6898"
         style="fill:#ffffff;fill-opacity:1;fill-rule:nonzero;stroke:none;stroke-width:2.59316492"
         d="m 3115.703,3967.6143 c -10.7801,30.4978 -29.834,43.8974 -49.5533,63.815 -26.7508,27.0721 -52.7252,55.3872 -77.6794,85.4606 -39.4829,47.5354 -69.2059,103.8623 -119.2916,131.7227 -8.5842,4.79 -18.1445,-10.8228 -9.7599,-19.5538 44.4072,-46.1104 79.099,-108.0156 120.0016,-159.5224 32.7619,-41.26 82.892,-108.9554 127.8759,-118.5049 7.3864,-1.5462 11.4234,8.064 8.4067,16.5828" /><path
         id="path6900"
         style="fill:#dfeb36;fill-opacity:1;fill-rule:nonzero;stroke:none;stroke-width:2.59316492"
         d="m 1824.833,4792.723 c 0,0 -211.5664,-177.1664 -271.0791,-324.1077 -59.4906,-146.9413 42.1003,-517.6142 42.1003,-517.6142 0,0 152.0315,243.4066 279.7742,298.0056 127.7207,54.599 601.0279,231.159 742.6118,188.5955 141.5841,-42.5333 -456.2053,473.7773 -793.4072,355.1208" /><path
         id="path6902"
         style="fill:#ecf277;fill-opacity:1;fill-rule:nonzero;stroke:none;stroke-width:2.59316492"
         d="m 1738.6581,4681.5241 c -9.0278,-12.7024 -163.1664,-149.6697 -181.1999,-227.4301 -18.0557,-77.7603 3.7264,-316.4074 29.5013,-374.1289 0,0 118.8923,187.2615 182.3091,228.2487 63.4166,41.0174 150.6118,72.546 150.6118,72.546 0,0 -152.7413,70.6664 -169.5105,136.0276 -16.7691,65.3914 -11.7118,164.7367 -11.7118,164.7367" /><path
         id="path6904"
         style="fill:#ffffff;fill-opacity:1;fill-rule:nonzero;stroke:none;stroke-width:2.59316492"
         d="m 1687.2639,4598.0947 c -124.0608,-52.871 -180.3128,-327.1999 -113.0588,-472.4435 6.7875,-14.6425 27.3719,-10.6409 28.1926,8.2763 3.1941,73.0311 -12.7765,144.5766 -7.9853,219.366 6.4992,101.5887 43.6087,164.4639 100.4375,224.6714 7.5417,7.9731 1.6192,24.0709 -7.586,20.1298" /><path
         id="path6906"
         style="fill:#dfeb36;fill-opacity:1;fill-rule:nonzero;stroke:none;stroke-width:2.59316492"
         d="m 3899.6388,4512.5735 c 0,0 629.3757,-215.5766 801.2817,-555.9336 0,0 173.9023,466.6835 -131.2475,731.8569 -305.1276,265.1734 -852.787,63.2391 -670.0342,-175.9233" /><path
         id="path6908"
         style="fill:#ffffff;fill-opacity:1;fill-rule:nonzero;stroke:none;stroke-width:2.59316492"
         d="m 4695.5748,4088.1504 c -17.6121,71.7881 -75.5278,120.4452 -120.0237,159.4618 -65.5239,57.388 -130.9591,78.973 -205.5331,95.8287 -5.0795,1.1216 -6.0777,-8.5188 -1.3974,-10.4893 53.679,-22.8886 110.6853,-62.9056 160.4826,-98.5875 60.4222,-43.2911 98.5076,-106.4089 150.9224,-160.8866 7.7191,-8.0034 18.7433,1.5765 15.5492,14.6729" /><path
         id="path6910"
         style="fill:#dc2225;fill-opacity:1;fill-rule:nonzero;stroke:none;stroke-width:2.59316492"
         d="m 3163.3265,4629.2594 c 0,0 943.1319,298.4604 1524.3739,152.7317 0,0 -26.4625,-209.4528 -39.6826,-244.5283 0,0 -794.3389,-509.4289 -1405.6145,-213.6667 0,0 -82.7811,232.0988 -79.0768,305.4633" /><path
         id="path6912"
         style="fill:#ef2d29;fill-opacity:1;fill-rule:nonzero;stroke:none;stroke-width:2.59316492"
         d="m 3265.2723,4347.7457 -22.869,179.0459 c 0,0 83.0028,31.8317 95.6685,-26.9206 12.6655,-58.7826 150.7671,-223.8225 279.8851,-152.1253 129.1181,71.6972 134.1089,72.546 226.7385,50.4458 92.6297,-22.1004 160.1055,32.2561 201.6735,86.3397 41.568,54.0836 138.9666,-40.7447 179.4477,-15.0064 40.4589,25.7383 122.4858,111.4413 122.4858,111.4413 0,0 143.8909,-15.7339 207.3076,79.3066 63.4167,95.0101 74.5961,67.3316 74.5961,67.3316 l -13.1757,-146.6382 c 0,0 -169.6879,-117.0801 -422.2456,-219.6085 -252.5799,-102.5285 -672.0083,-107.0759 -929.5125,-13.6119" /><path
         id="path6914"
         style="fill:#dc2225;fill-opacity:1;fill-rule:nonzero;stroke:none;stroke-width:2.59316492"
         d="m 1824.833,4792.723 c 0,0 -19.8302,-168.981 0,-238.6774 19.8524,-69.7266 198.3684,-239.4655 608.2811,-290.1234 409.9127,-50.6883 813.2375,136.0276 839.6777,173.68 26.4403,37.6826 34.0707,195.2952 0,264.8399 -34.0706,69.5145 -694.2119,489.0566 -1447.9588,90.2809" /><path
         id="path6916"
         style="fill:#ef2d29;fill-opacity:1;fill-rule:nonzero;stroke:none;stroke-width:2.59316492"
         d="m 2018.0776,4437.6022 c 0,0 110.6409,35.0148 135.5727,23.3129 24.932,-11.702 69.5167,-84.6421 81.4059,-113.1694 11.8893,-28.5272 -184.5272,55.1751 -216.9786,89.8565" /><path
         id="path6918"
         style="fill:#ef2d29;fill-opacity:1;fill-rule:nonzero;stroke:none;stroke-width:2.59316492"
         d="m 2368.8324,4341.9251 c 10.2256,51.0217 114.1677,122.5673 125.4359,118.99 11.2904,-3.5773 115.787,-113.2604 145.2883,-145.759 29.5013,-32.4987 -282.5469,-32.2259 -270.7242,26.769" /><path
         id="path6920"
         style="fill:#ef2d29;fill-opacity:1;fill-rule:nonzero;stroke:none;stroke-width:2.59316492"
         d="m 2734.4487,4323.2807 c 36.9321,24.465 77.5241,101.4675 105.6501,111.6839 28.1039,10.1862 98.1972,4.6687 98.1972,4.6687 0,0 163.1888,-52.0827 224.8974,21.4031 l 16.2369,-58.4189 c 0,0 -348.5367,-119.9297 -444.9816,-79.3368" /><path
         id="path6922"
         style="fill:#15ac49;fill-opacity:1;fill-rule:nonzero;stroke:none;stroke-width:2.59316492"
         d="m 1910.8525,4814.1563 c 0,0 -79.2763,-240.7691 0,-312.4056 79.2765,-71.6366 224.7422,10.0952 277.6228,-17.2195 52.9026,-27.3147 33.0724,-140.5446 119.0254,-133.6327 85.953,6.9121 119.0033,177.3179 191.7362,150.8522 72.7329,-26.4659 119.0033,-176.4388 198.3463,-151.1553 79.3429,25.2835 99.1731,129.4187 132.2234,118.0199 33.0725,-11.3988 178.5161,23.4342 231.4188,109.9256 52.8805,86.5217 -71.4907,223.7619 -244.6389,203.3896 -173.1482,-20.3723 -804.4314,-9.0644 -905.734,32.2258" /><path
         id="path6924"
         style="fill:#3ab73e;fill-opacity:1;fill-rule:nonzero;stroke:none;stroke-width:2.59316492"
         d="m 1910.8525,4847.1704 c 0,0 -79.2763,-240.7995 0,-312.436 79.2765,-71.6365 249.5189,30.0431 302.4215,2.7284 52.8806,-27.3147 24.4884,-106.7423 110.4414,-99.8606 85.953,6.9119 97.8422,190.6872 170.5529,164.2213 72.7328,-26.4658 107.3137,-189.5048 186.6566,-164.2213 79.343,25.3138 112.9479,134.9361 145.9982,123.5373 33.0503,-11.3988 181.3996,-36.1062 234.3023,50.4154 52.8805,86.4914 -71.4907,223.7316 -244.6389,203.3593 -173.1482,-20.3723 -804.4314,-9.0645 -905.734,32.2562" /><path
         id="path6926"
         style="fill:#15ac49;fill-opacity:1;fill-rule:nonzero;stroke:none;stroke-width:2.59316492"
         d="m 3338.9146,4665.0626 c 0,0 -6.61,-166.4952 85.953,-250.4096 92.5631,-83.9448 231.3966,23.8283 284.2993,55.7813 52.9027,31.953 76.7921,-43.3821 190.4719,-32.8321 113.6576,10.5802 93.8274,107.1971 146.7301,126.6599 52.8805,19.4628 92.5631,-81.5499 171.8838,-40.0776 79.343,41.4721 127.8537,135.209 132.2457,199.7516 4.3919,64.5123 -191.1816,117.353 -383.4724,111.7445 -192.2908,-5.6084 -555.3785,1.0611 -628.1114,-170.618" /><path
         id="path6928"
         style="fill:#3ab73e;fill-opacity:1;fill-rule:nonzero;stroke:none;stroke-width:2.59316492"
         d="m 3338.9146,4665.0626 c 0,0 -14.5953,-111.5929 77.9678,-195.5378 92.563,-83.9145 240.1804,32.1652 293.0831,64.1182 52.9027,31.953 75.9935,-31.6195 189.6733,-21.0695 113.6576,10.5802 102.8553,81.9136 155.758,101.3764 52.8805,19.4628 67.3427,-82.4593 146.6857,-40.9871 79.3207,41.4721 144.0239,86.4307 148.4159,150.9733 4.3919,64.5123 -191.1816,117.353 -383.4724,111.7445 -192.2908,-5.6084 -555.3785,1.0611 -628.1114,-170.618" /><path
         id="path6930"
         style="fill:#ddda19;fill-opacity:1;fill-rule:nonzero;stroke:none;stroke-width:2.59316492"
         d="m 1737.66,5026.4891 c 0,0 -223.5665,-9.0342 -230.1766,-108.4098 -6.61,-99.4059 70.9362,-27.1328 88.3708,-117.4742 17.4124,-90.3718 129.8057,-126.2355 209.1486,-76.669 79.343,49.5362 152.0758,-53.0529 191.7363,-105.6813 39.6824,-52.5982 125.6354,-118.6263 224.8086,-53.9927 99.1731,64.6335 277.6892,19.766 277.6892,159.674 0,139.908 -391.3246,76.669 -761.5769,302.553" /><path
         id="path6932"
         style="fill:#f2eb4d;fill-opacity:1;fill-rule:nonzero;stroke:none;stroke-width:2.59316492"
         d="m 1577.4436,4978.0442 0.5323,-0.2425 -0.5323,0.2425" /><path
         id="path6934"
         style="fill:#f2eb4d;fill-opacity:1;fill-rule:nonzero;stroke:none;stroke-width:2.59316492"
         d="m 1631.8768,4958.3692 -0.1109,0.576 c -4.525,20.3117 -20.3182,30.4069 -34.8248,24.8893 l -3.7708,-2.4555 c -5.4346,-0.091 -10.5141,-1.4855 -15.3275,-3.7288 l -0.3992,0.394 c -3.1498,2.0312 -6.5435,2.8194 -10.0038,2.6679 -13.0427,1.4551 -24.444,-11.035 -31.2314,-26.9206 -12.0889,-28.2848 5.2348,-57.0546 22.0261,-70.9696 8.2515,-6.8211 20.4956,-5.1234 29.213,2.4556 2.218,-3.456 4.5249,-6.7605 7.0758,-9.3374 22.3145,-22.2821 48.7769,-4.2745 50.6624,32.8019 0.9538,18.7352 -4.392,36.3488 -13.3089,49.6272" /><path
         id="path6936"
         style="fill:#f2eb4d;fill-opacity:1;fill-rule:nonzero;stroke:none;stroke-width:2.59316492"
         d="m 1745.4235,4822.0082 c -5.9668,-0.6367 -14.8172,-4.0624 -21.4716,-1.8493 -4.4585,7.1848 -10.1813,13.5512 -17.0575,18.4321 -9.3828,6.6088 -20.6509,4.6989 -29.0799,-3.4257 -17.4346,8.1853 -36.8877,-13.5513 -34.9357,-43.8672 1.7745,-27.4056 17.6786,-48.3539 37.3091,-52.3253 10.4919,-2.0918 23.4014,-0.3941 33.6936,6.6998 20.8505,-5.6993 42.7436,1.3945 53.7899,29.1336 8.4068,21.0999 -4.658,49.0513 -22.2479,47.202" /><path
         id="path6938"
         style="fill:#f2eb4d;fill-opacity:1;fill-rule:nonzero;stroke:none;stroke-width:2.59316492"
         d="m 2152.1198,4654.3308 c -42.4995,11.8838 -84.4446,17.2194 -117.2509,58.7219 -14.8394,18.7656 -26.7286,36.652 -43.897,51.6584 -17.1241,15.0063 -45.0284,15.7036 -64.5259,22.7065 -12.6211,4.5171 -17.7229,-16.9465 -10.4252,-28.0119 17.8561,-27.1631 41.9007,-44.0793 58.4924,-73.1523 15.039,-26.4052 26.3515,-53.8107 46.2483,-74.274 34.0707,-35.0149 85.2432,-43.9885 126.4563,-36.6217 31.6751,5.6691 39.1502,69.4235 4.902,78.9731" /><path
         id="path6940"
         style="fill:#ddda19;fill-opacity:1;fill-rule:nonzero;stroke:none;stroke-width:2.59316492"
         d="m 2585.1899,4781.9911 c 0,0 19.8302,-228.1576 132.2235,-217.729 112.3932,10.4287 152.0758,-17.3407 238.0288,-93.8278 85.953,-76.4871 178.7823,-8.6097 257.8591,93.8278 79.0545,102.4375 138.8335,26.3445 204.9563,-26.7993 66.1006,-53.1438 152.0536,-55.2963 218.1764,0 66.1229,55.2963 124.3269,150.8824 218.7976,161.887 94.4707,10.9745 58.8917,191.5967 -311.3606,119.3236 -370.2523,-72.3035 -859.5079,-100.467 -958.6811,-36.6823" /><path
         id="path6942"
         style="fill:#f2eb4d;fill-opacity:1;fill-rule:nonzero;stroke:none;stroke-width:2.59316492"
         d="m 3171.2231,4635.2317 c -36.3109,-1.3339 -42.189,-5.5478 -75.1063,-27.2237 -79.4982,-52.3556 -121.3768,-13.2784 -190.2944,26.7083 -66.766,38.7741 -147.0184,21.6456 -217.4667,22.5247 -10.0259,0.1517 -14.795,-18.8564 -7.1646,-27.4662 30.2333,-34.0447 54.0784,-46.6561 92.6519,-55.5994 68.9398,-15.9765 113.0364,-25.1319 172.2165,-76.8509 80.7404,-70.5451 173.0817,8.2762 241.0233,69.6964 22.6694,20.4935 11.1351,69.2113 -15.8597,68.2108" /><path
         id="path6944"
         style="fill:#f2eb4d;fill-opacity:1;fill-rule:nonzero;stroke:none;stroke-width:2.59316492"
         d="m 3582.0008,4661.7884 c -27.7046,-25.9807 -49.2427,-30.4371 -82.9584,-28.1331 -38.8176,2.6981 -78.611,4.8808 -117.3176,9.0341 -14.1739,1.5159 -22.0261,-28.7698 -10.4253,-39.8654 55.631,-53.2651 222.0804,-125.023 257.7481,0.9701 10.9577,38.7438 -17.9004,85.3393 -47.0468,57.9943" /><path
         id="path6946"
         style="fill:#ddda19;fill-opacity:1;fill-rule:nonzero;stroke:none;stroke-width:2.59316492"
         d="m 4013.2964,4781.9911 c 0,0 19.8302,-191.8089 119.0255,-145.3346 99.1732,46.4743 158.6637,43.8975 218.1765,0 59.5128,-43.8974 138.8335,-25.8595 178.5161,69.0294 39.6604,94.9192 92.5631,102.8619 158.6859,76.3052 66.1006,-26.5871 165.2737,136.0882 39.6604,217.3955 -125.6134,81.3377 -597.5897,-193.3853 -714.0644,-217.3955" /><path
         id="path6948"
         style="fill:#f2eb4d;fill-opacity:1;fill-rule:nonzero;stroke:none;stroke-width:2.59316492"
         d="m 4296.5753,4761.6795 c -78.8105,48.0507 -137.9018,-30.5585 -210.1911,-58.2369 -17.5455,-6.7302 -16.503,-44.2613 1.6192,-48.5662 30.6104,-7.3061 52.8584,-5.3053 83.2025,6.2754 30.5882,11.702 62.6404,36.6823 94.2711,16.7344 14.9725,-9.4585 29.5013,-4.4868 41.1909,10.5803 4.6137,5.9419 6.0777,13.4299 7.9409,21.3727 4.5029,19.1596 -5.0129,43.8975 -18.0335,51.8403" /><path
         id="path6950"
         style="fill:#f2eb4d;fill-opacity:1;fill-rule:nonzero;stroke:none;stroke-width:2.59316492"
         d="m 4451.0024,4764.1654 c -6.2108,-4.9719 -11.2904,-11.1866 -16.3477,-18.1593 -2.2625,-3.1225 -3.1275,-4.3352 -3.4381,-4.8506 -4.6138,-2.5162 -6.2108,-2.5465 -12.3107,-1.7886 -20.3848,2.5769 -47.2686,6.2451 -61.864,-17.6438 -6.7875,-11.0654 -7.453,-25.3442 -2.1738,-37.7434 13.1536,-30.801 51.6605,-43.4124 75.683,-45.9893 37.6641,-4.032 73.3984,36.4398 72.9104,89.0986 -0.3549,36.7126 -31.0318,54.3261 -52.4591,37.0764" /><path
         id="path6952"
         style="fill:#f2eb4d;fill-opacity:1;fill-rule:nonzero;stroke:none;stroke-width:2.59316492"
         d="m 4761.3648,4899.1015 c -11.5343,30.0735 -45.4275,23.8587 -55.5422,-3.9107 -0.5989,-1.6371 -1.7746,-5.6691 -2.7727,-9.3979 -8.2959,-4.214 -17.4568,-6.4876 -25.9745,-8.8523 -17.0131,-4.7293 -37.0651,-6.336 -51.971,-19.7053 -12.4438,-11.1866 -9.3827,-32.5594 1.6192,-42.6849 20.8284,-19.1596 56.3408,-24.5559 80.4742,-19.1596 36.7324,8.1853 75.8383,47.2019 54.167,103.7107" /><path
         id="path6954"
         style="fill:#f58032;fill-opacity:1;fill-rule:nonzero;stroke:none;stroke-width:2.59316492"
         d="m 3275.254,6520.2763 c -489.3222,-1.0308 -1614.9628,-18.8869 -1535.9526,-1530.8635 0,0 -0.4214,-324.3502 1374.8045,-324.3502 1375.226,0 1588.5004,288.2741 1613.2549,334.324 99.7276,185.6548 215.692,1524.4063 -1452.1068,1520.8897" /><path
         id="path6956"
         style="fill:#f89e4f;fill-opacity:1;fill-rule:nonzero;stroke:none;stroke-width:2.59316492"
         d="m 2474.5712,4706.5348 c -165.6287,29.1639 -520.6424,84.248 -598.9428,159.7953 -78.3226,75.5169 -161.7469,84.0054 -117.0513,314.1639 18.2775,94.04 173.1926,17.9167 244.5723,-24.374 71.4021,-42.2907 461.174,-175.4686 933.4165,-193.6278 472.2646,-18.1593 1240.4073,48.7177 1463.9294,158.3704 212.9195,104.4081 296.6543,203.9353 336.4257,151.7312 51.9932,-68.2412 36.5993,-232.4019 -106.7149,-354.4842 -135.7503,-115.6552 -597.7671,-208.9677 -1073.359,-225.217 -475.614,-16.2494 -838.2359,-29.3761 -1082.2759,13.6422" /><path
         id="path6958"
         style="fill:#fcd594;fill-opacity:1;fill-rule:nonzero;stroke:none;stroke-width:2.59316492"
         d="m 2499.2369,4723.9361 c -165.6286,29.1943 -545.3081,86.9461 -623.6085,162.4934 -78.3226,75.517 -130.0274,139.5745 -114.1899,234.4331 15.8597,94.8283 170.3312,-10.1256 241.7109,-52.4466 71.4021,-42.2907 450.6378,-157.6731 922.9024,-175.8324 472.2647,-18.1289 1260.9695,45.1405 1484.4917,154.7932 212.8973,104.408 266.9978,210.0893 313.9336,170.4968 24.3331,-20.4936 47.6014,-118.3535 -2.8392,-203.4806 -19.4309,-32.7714 -77.8124,-61.6625 -119.6243,-90.8265 -157.3773,-109.683 -577.4934,-200.7824 -1053.1074,-217.0317 -475.5919,-16.2493 -805.6293,-25.617 -1049.6693,17.4013" /><path
         id="path6960"
         style="fill:#ec6221;fill-opacity:1;fill-rule:nonzero;stroke:none;stroke-width:2.59316492"
         d="m 3242.4033,6441.3033 c -459.8653,-7.0334 -1037.5139,-106.1967 -1263.2319,-559.6018 -225.7182,-453.4354 73.2873,-618.6269 394.4743,-696.6601 394.4966,-95.8589 2147.6275,-116.4738 2247.6435,268.296 66.4112,255.4723 -222.9233,1005.6098 -1378.8859,987.9659" /><path
         id="path6962"
         style="fill:#f58032;fill-opacity:1;fill-rule:nonzero;stroke:none;stroke-width:2.59316492"
         d="m 2979.2651,6463.6461 c -289.6006,-4.3958 -653.3537,-66.8466 -795.4923,-352.3621 -142.1164,-285.5457 107.1362,-342.6003 311.9817,-363.9427 204.8232,-21.3424 1262.8326,-62.2689 1330.5082,134.4815 73.3761,213.3029 -119.0699,592.9492 -846.9976,581.8233" /><path
         id="path6964"
         style="fill:#f78d3d;fill-opacity:1;fill-rule:nonzero;stroke:none;stroke-width:2.59316492"
         d="m 2697.5832,6380.0651 c -239.0492,-61.4504 -484.2204,-254.957 -484.3092,-349.7549 -0.1996,-185.9276 1066.017,-116.8982 1044.8116,186.5339 -15.6823,224.4592 -266.4211,238.7986 -560.5024,163.221" /><path
         id="path6966"
         style="fill:#fabe58;fill-opacity:1;fill-rule:nonzero;stroke:none;stroke-width:2.59316492"
         d="m 2675.8232,6170.2789 c -19.076,-21.7366 -28.0373,-63.2997 -26.0853,-96.7988 0.9094,-15.552 15.3939,-23.9496 23.3348,-11.3988 7.453,11.7929 11.5122,24.4346 15.7045,38.7741 4.5028,15.2792 10.27,29.0729 12.355,45.4739 2.2182,17.4316 -13.3088,37.622 -25.309,23.9496" /><path
         id="path6968"
         style="fill:#fabe58;fill-opacity:1;fill-rule:nonzero;stroke:none;stroke-width:2.59316492"
         d="m 2620.6802,6274.5657 c -13.2423,-4.4868 -27.5715,-20.918 -33.8267,-37.6827 -3.1941,-8.4885 -5.7006,-17.5227 -6.0333,-27.1328 -0.3327,-10.7318 2.928,-17.2194 5.5454,-26.587 4.7246,-16.9164 23.734,-13.43 23.2239,5.5781 -0.244,9.3676 6.2995,20.9786 10.2921,28.0119 7.0094,12.3386 14.3293,21.2211 17.6121,36.8035 2.928,13.8544 -7.8744,24.0102 -16.8135,21.009" /><path
         id="path6970"
         style="fill:#fabe58;fill-opacity:1;fill-rule:nonzero;stroke:none;stroke-width:2.59316492"
         d="m 2811.3961,6238.8232 c -7.4752,12.3386 -27.9042,9.8223 -25.2868,-10.9744 2.5952,-20.7664 0.3105,-44.8675 10.2699,-62.4508 7.8301,-13.824 28.5254,-14.2788 30.2333,7.4881 1.7967,23.0097 -4.4141,48.1416 -15.2164,65.9371" /><path
         id="path6972"
         style="fill:#fabe58;fill-opacity:1;fill-rule:nonzero;stroke:none;stroke-width:2.59316492"
         d="m 2401.8605,6122.5616 c -22.3811,-22.07 -34.3147,-67.0892 -26.2406,-103.0439 3.4824,-15.4611 22.4476,-20.2814 27.1056,-3.0619 3.4826,12.8843 7.5417,25.3745 11.4235,38.0162 4.5028,14.6426 11.6897,27.2237 14.2626,42.9577 3.1942,19.5841 -13.9964,37.5008 -26.5511,25.1319" /><path
         id="path6974"
         style="fill:#fabe58;fill-opacity:1;fill-rule:nonzero;stroke:none;stroke-width:2.59316492"
         d="m 2338.0445,6265.1981 c -12.7321,3.365 -24.3551,-16.7345 -30.2776,-29.6187 -8.1628,-17.7652 -10.0704,-32.4684 -7.2976,-52.6285 2.5508,-18.614 20.7174,-12.7327 24.0446,1.4855 -0.088,-0.4244 5.013,9.5192 6.7875,12.5811 4.525,7.7609 8.7394,15.6127 12.7765,23.889 5.5453,11.3078 7.0315,40.8052 -6.0334,44.2916" /><path
         id="path6976"
         style="fill:#fabe58;fill-opacity:1;fill-rule:nonzero;stroke:none;stroke-width:2.59316492"
         d="m 2514.2759,6327.7095 c -13.7303,6.0631 -26.1518,-6.0935 -35.0244,-19.4022 -9.8486,-14.7942 -11.2682,-34.2267 -7.2755,-52.6284 3.1497,-14.4002 20.3182,-18.1896 24.71,-2.7891 2.3513,8.2156 5.7672,15.2792 9.9151,22.0396 5.6563,9.1858 13.3976,12.6418 17.5899,24.374 4.392,12.3387 -0.9981,24.465 -9.9151,28.4061" /><path
         id="path6978"
         style="fill:#fabe58;fill-opacity:1;fill-rule:nonzero;stroke:none;stroke-width:2.59316492"
         d="m 2161.8131,6174.5231 c -9.8263,7.7306 -23.4901,-2.1827 -31.2536,-10.3984 -11.5565,-12.2476 -19.4087,-25.435 -23.3348,-44.8373 -4.2811,-21.0392 16.2368,-32.5289 26.2406,-18.2805 8.1184,11.5807 18.2774,20.5845 26.5068,32.3168 6.477,9.1858 12.0667,33.1657 1.841,41.1994" /><path
         id="path6980"
         style="fill:#fabe58;fill-opacity:1;fill-rule:nonzero;stroke:none;stroke-width:2.59316492"
         d="m 2182.2423,6072.9647 c -19.8524,-14.0666 -26.0854,-53.1135 -26.4847,-80.7617 -0.2439,-15.9158 17.1685,-25.435 24.3109,-11.8838 10.5584,20.0995 21.7599,45.5042 26.6842,69.4235 4.1923,20.2814 -13.1092,31.2861 -24.5104,23.222" /><path
         id="path6982"
         style="fill:#fabe58;fill-opacity:1;fill-rule:nonzero;stroke:none;stroke-width:2.59316492"
         d="m 2515.6734,6124.229 c -5.1461,24.4043 -25.6417,43.8671 -43.52,45.2314 -12.4216,0.97 -19.2534,-21.1 -12.8652,-34.0145 9.0944,-18.4321 22.9134,-43.0183 40.9248,-41.3207 11.0906,1.0611 18.5658,15.4915 15.4604,30.1038" /><path
         id="path6984"
         style="fill:#fabe58;fill-opacity:1;fill-rule:nonzero;stroke:none;stroke-width:2.59316492"
         d="m 2823.5515,6425.7513 c -14.795,2.7283 -24.9319,-2.0009 -38.2629,-10.9138 -12.3329,-8.2157 -22.736,-22.0397 -29.9228,-37.8343 -9.4049,-20.6754 10.5806,-39.0166 23.7119,-29.2246 18.1223,13.5513 38.6179,23.2523 52.4147,44.5644 6.965,10.7622 3.4382,31.2861 -7.9409,33.4083" /><path
         id="path6986"
         style="fill:#fabe58;fill-opacity:1;fill-rule:nonzero;stroke:none;stroke-width:2.59316492"
         d="m 3134.1801,6265.7437 c -20.2516,0 -45.2723,-21.4636 -48.8878,-49.8697 -1.6414,-12.7933 9.5602,-27.0115 18.344,-17.3407 11.8005,12.9752 28.3257,13.1268 40.2149,25.617 12.9539,13.5815 7.4308,41.5934 -9.6711,41.5934" /><path
         id="path6988"
         style="fill:#fabe58;fill-opacity:1;fill-rule:nonzero;stroke:none;stroke-width:2.59316492"
         d="m 2996.7219,6217.7839 c -4.6138,17.1285 -22.0484,16.1281 -25.4865,-1.5764 -5.4122,-27.8907 4.7247,-59.4192 19.4087,-78.9427 9.7599,-13.0055 24.8654,-0.667 24.9097,16.128 0.088,24.1316 -12.9539,42.6849 -18.8319,64.3911" /><path
         id="path6990"
         style="fill:#fabe58;fill-opacity:1;fill-rule:nonzero;stroke:none;stroke-width:2.59316492"
         d="m 3248.5254,6402.0442 c -11.2017,35.6212 -43.4091,53.6592 -69.0951,36.1062 -9.3828,-6.3967 -6.0778,-23.7677 1.1312,-29.8915 15.2164,-12.9752 29.5456,-30.6797 46.7806,-37.8949 12.4438,-5.184 26.4181,15.0064 21.1833,31.6802" /><path
         id="path6992"
         style="fill:#fabe58;fill-opacity:1;fill-rule:nonzero;stroke:none;stroke-width:2.59316492"
         d="m 3304.6887,6191.8941 c -6.3439,22.0094 -20.1629,33.0141 -36.067,39.6836 -6.61,2.7284 -13.7303,3.8804 -20.5621,2.6374 -4.0592,-0.7276 -7.4973,-1.6673 -11.1795,-4.2442 -0.8651,-0.6063 -10.1812,-6.3057 -6.0998,-4.2442 -7.7192,-3.8804 -10.4697,-20.8271 -1.575,-25.7989 3.2164,-1.7886 6.0555,-6.3057 9.1388,-8.5794 4.6137,-3.3347 9.2053,-6.4876 13.93,-9.5495 8.9612,-5.76 15.4604,-16.0371 23.9115,-22.8885 14.7285,-11.8838 34.847,11.0653 28.5031,32.9837" /><path
         id="path6994"
         style="fill:#fabe58;fill-opacity:1;fill-rule:nonzero;stroke:none;stroke-width:2.59316492"
         d="m 3164.4134,6094.5497 c -26.7508,7.9124 -15.6379,-69.9692 -13.9964,-86.0063 1.7745,-17.3407 21.8486,-22.6157 23.8671,-2.7588 2.196,21.4031 13.4864,81.853 -9.8707,88.7651" /><path
         id="path6996"
         style="fill:#fabe58;fill-opacity:1;fill-rule:nonzero;stroke:none;stroke-width:2.59316492"
         d="m 2925.2977,6061.9903 c -3.5269,13.7028 -5.4567,27.9514 -10.3365,40.8963 -5.8559,15.5217 -23.9116,12.672 -28.969,-2.0312 -10.1147,-29.3458 -2.817,-91.1297 22.0261,-103.8321 12.2886,-6.3057 29.6788,3.0013 27.8821,24.5559 -1.2421,14.7335 -7.0537,26.6174 -10.6027,40.4111" /><path
         id="path6998"
         style="fill:#fabe58;fill-opacity:1;fill-rule:nonzero;stroke:none;stroke-width:2.59316492"
         d="m 2561.4558,5863.6635 c -18.0335,-5.6994 -24.6879,-36.3791 -22.2479,-58.5401 2.7948,-25.435 28.3034,-30.4371 33.4052,-3.8804 2.7948,14.4911 9.3827,28.0726 8.6507,43.4427 -0.6875,14.1879 -10.1591,22.0398 -19.808,18.9778" /><path
         id="path7000"
         style="fill:#fabe58;fill-opacity:1;fill-rule:nonzero;stroke:none;stroke-width:2.59316492"
         d="m 2070.6919,5908.1673 c -2.0185,5.3053 -6.6323,7.3668 -10.6471,7.5487 -15.4161,0.667 -22.9578,-23.3736 -28.5475,-39.3804 -6.1442,-17.5832 -9.294,-35.4394 -6.9206,-54.8112 2.6174,-21.0696 24.1112,-26.1929 28.2813,-3.2741 2.5509,14.0362 7.2089,28.2847 11.5122,41.5025 5.3678,16.4615 13.1092,30.5281 6.3217,48.4145" /><path
         id="path7002"
         style="fill:#fabe58;fill-opacity:1;fill-rule:nonzero;stroke:none;stroke-width:2.59316492"
         d="m 2011.534,6012.8179 c -1.2421,5.1537 -4.7247,8.5491 -8.6951,8.3672 -10.8467,-0.4548 -19.9189,-7.0636 -29.3904,-18.614 -10.6471,-12.9146 -18.4771,-31.2557 -17.0353,-51.2036 1.5305,-21.2818 18.8321,-28.7698 29.8118,-14.5516 7.7192,9.974 14.1518,23.0704 20.0521,35.1059 6.8983,14.1271 8.3623,28.224 5.2569,40.8961" /><path
         id="path7004"
         style="fill:#fabe58;fill-opacity:1;fill-rule:nonzero;stroke:none;stroke-width:2.59316492"
         d="m 3052.4416,6417.6568 c -10.5805,20.524 -31.7416,18.6443 -46.3814,6.0936 -6.61,-5.6691 -13.5306,-12.7327 -17.5011,-22.1307 -1.6193,-3.7895 -2.5508,-7.7305 -3.5712,-11.8838 -0.5768,-2.7891 -0.8651,-5.6388 -0.8872,-8.5188 1.0203,-5.7297 0.9981,-6.6392 -0.066,-2.7588 -3.6378,-18.0379 14.7506,-26.5567 21.9374,-12.8236 5.3901,3.7592 10.514,7.7003 16.7026,9.6708 12.3551,3.9411 24.1999,6.5785 30.4773,23.4039 2.1516,5.7903 2.085,13.5209 -0.7098,18.9474" /><path
         id="path7006"
         style="fill:#fabe58;fill-opacity:1;fill-rule:nonzero;stroke:none;stroke-width:2.59316492"
         d="m 2883.4192,6295.514 c -10.0704,12.3992 -21.1833,10.5196 -33.4274,14.5213 -11.49,3.7288 -17.1906,-13.2177 -12.8874,-25.4654 6.1663,-17.6136 23.0687,-26.2839 36.7324,-25.7382 13.6194,0.5457 19.4753,24.465 9.5824,36.6823" /><path
         id="path7008"
         style="fill:#fabe58;fill-opacity:1;fill-rule:nonzero;stroke:none;stroke-width:2.59316492"
         d="m 3463.7517,6480.7139 c -9.1388,6.4271 -20.0742,9.5799 -30.2555,7.7913 -11.8005,-2.0615 -16.6138,-10.6106 -24.5104,-21.1908 -8.4733,-11.3382 1.6414,-33.4082 12.7986,-27.1631 l -1.5305,2.395 c 2.2404,-1.4552 4.5694,-2.3343 7.0093,-2.6072 4.2145,-0.9399 7.4086,-2.1828 11.3347,-4.6687 8.8726,-5.5478 16.7249,-14.7336 24.3331,-22.8582 8.2737,-8.7916 41.324,-23.0401 37.6862,7.1849 -3.3715,28.1635 -18.7211,48.3235 -36.8655,61.1168" /><path
         id="path7010"
         style="fill:#fabe58;fill-opacity:1;fill-rule:nonzero;stroke:none;stroke-width:2.59316492"
         d="m 3422.4277,6277.5669 c -7.2312,20.2814 -13.9077,41.5631 -19.6749,62.845 -5.4566,20.251 -24.5105,17.6135 -29.0576,-1.7886 -3.9262,-16.7345 -3.0389,-32.4078 0.5988,-49.1725 4.3919,-20.2814 15.3052,-32.3168 27.4384,-43.2305 5.9003,-5.3357 14.8173,-1.7583 19.1648,4.9112 5.1905,7.9124 4.7024,17.5226 1.5305,26.4354" /><path
         id="path7012"
         style="fill:#fabe58;fill-opacity:1;fill-rule:nonzero;stroke:none;stroke-width:2.59316492"
         d="m 3602.1859,6321.9798 c -19.4309,-1.0005 -33.2721,-21.3121 -51.3278,-27.1328 -12.7321,-4.0927 -12.0445,-33.1353 1.1757,-35.3181 17.989,-2.9406 34.3146,5.1538 51.8601,8.8826 11.8005,2.4859 34.1151,-16.0371 38.2852,10.2771 4.8133,30.5281 -22.8913,44.1704 -39.9932,43.2912" /><path
         id="path7014"
         style="fill:#fabe58;fill-opacity:1;fill-rule:nonzero;stroke:none;stroke-width:2.59316492"
         d="m 3518.4289,6099.4912 c -5.4788,13.0964 -16.259,23.7373 -20.0076,38.0464 -5.0352,19.1294 -27.4163,20.1602 -30.1668,-1.8795 -3.6821,-29.6793 10.0482,-54.9325 28.0817,-69.666 15.527,-12.6721 29.9228,14.7032 22.0927,33.4991" /><path
         id="path7016"
         style="fill:#fabe58;fill-opacity:1;fill-rule:nonzero;stroke:none;stroke-width:2.59316492"
         d="m 3856.9396,6219.8454 c -9.1387,8.731 -18.4994,11.1259 -28.7471,16.31 -15.2609,7.7002 -26.1741,-19.5841 -11.6009,-31.2558 9.3162,-7.4576 41.3905,-30.2249 44.3628,-1.9099 0.6211,5.7297 -0.1774,13.2178 -4.0148,16.8557" /><path
         id="path7018"
         style="fill:#fabe58;fill-opacity:1;fill-rule:nonzero;stroke:none;stroke-width:2.59316492"
         d="m 3748.8051,6390.9485 c -9.4271,13.0055 -22.7137,20.3723 -35.7343,23.2826 -19.6749,4.3959 -28.4587,-30.4674 -11.4677,-44.1399 15.8597,-12.7631 43.2094,-69.9692 60.9989,-32.7715 9.1831,19.1596 -4.3254,40.5324 -13.7969,53.6288" /><path
         id="path7020"
         style="fill:#fabe58;fill-opacity:1;fill-rule:nonzero;stroke:none;stroke-width:2.59316492"
         d="m 3709.8546,6171.0064 c -16.1703,-17.3103 -21.6713,-41.9876 -25.0207,-68.6049 -2.1737,-17.2194 13.442,-29.2246 22.4032,-15.6127 10.625,16.1584 19.2978,35.5 26.4403,54.8718 7.0537,19.0081 -10.3144,43.8369 -23.8228,29.3458" /><path
         id="path7022"
         style="fill:#fabe58;fill-opacity:1;fill-rule:nonzero;stroke:none;stroke-width:2.59316492"
         d="m 3980.2239,6247.342 c -6.5214,34.0447 -36.3109,62.3295 -61.7087,51.628 -13.442,-5.6388 -16.015,-33.4688 -2.5508,-41.7451 7.2311,-4.4261 13.0426,-11.4896 18.7654,-18.9474 7.9631,-10.459 13.4641,-17.7045 24.2443,-22.7067 13.8634,-6.4269 24.3774,15.5219 21.2498,31.7712" /><path
         id="path7024"
         style="fill:#fabe58;fill-opacity:1;fill-rule:nonzero;stroke:none;stroke-width:2.59316492"
         d="m 3896.1563,6376.2452 c 0.6655,11.2776 -3.5268,18.1593 -11.8892,18.705 -18.9207,8.5188 -39.5051,-21.9184 -48.0671,-41.5024 -9.8264,-22.5248 11.2459,-42.1089 25.5751,-31.5287 14.2627,10.5197 37.3313,28.6486 34.3812,54.3261" /><path
         id="path7026"
         style="fill:#fabe58;fill-opacity:1;fill-rule:nonzero;stroke:none;stroke-width:2.59316492"
         d="m 4120.6545,6304.3359 c -11.1351,8.7917 -26.6621,-8.3066 -21.6935,-25.1016 l 0.5546,-1.8493 c -0.4437,-3.8804 -0.066,-8.2459 -0.044,-12.0354 0.022,-5.6691 -0.732,-11.9141 -1.1534,-17.5833 -0.5545,-7.3667 -1.9963,-14.491 -2.4621,-21.8274 -0.6212,-9.9436 0.732,-18.2199 2.8392,-24.859 4.2588,-13.3391 14.9946,-20.8574 24.821,-12.278 5.1017,4.4564 13.4641,14.9458 15.7488,28.7395 1.8632,11.1866 2.7283,22.4337 3.305,33.8932 1.1091,22.9795 -8.8947,42.6242 -21.9152,52.9013" /><path
         id="path7028"
         style="fill:#fabe58;fill-opacity:1;fill-rule:nonzero;stroke:none;stroke-width:2.59316492"
         d="m 4076.9128,6101.8558 c -9.782,16.4616 -22.3368,27.6482 -37.3314,33.1353 -16.7692,6.1238 -25.0429,-28.0423 -9.9816,-38.4406 4.8355,-3.3348 8.9834,-7.579 12.4881,-13.339 4.5694,-7.4577 9.4271,-19.4629 15.1056,-25.2229 7.7857,-7.9124 19.4974,-19.4021 28.015,-6.9119 9.8264,14.3393 -1.4195,39.1984 -8.2957,50.7791" /><path
         id="path7030"
         style="fill:#fabe58;fill-opacity:1;fill-rule:nonzero;stroke:none;stroke-width:2.59316492"
         d="m 4284.8413,6157.9706 c -6.8096,-7.6397 -13.4863,-15.2792 -20.5843,-22.4338 -3.4381,-3.4863 -8.0075,-7.0636 -10.758,-11.5807 -2.6174,-4.2745 -4.1922,-9.3676 -6.8318,-13.4602 -9.4937,-14.7336 4.6581,-38.8954 16.7469,-26.7993 2.4843,2.5162 7.6747,2.3646 10.7358,3.6985 3.8818,1.6977 7.8523,3.0013 11.734,4.608 12.3329,5.1538 21.0723,15.9159 27.6603,30.5888 10.0925,22.4944 -13.3532,52.5375 -28.7029,35.3787" /><path
         id="path7032"
         style="fill:#fabe58;fill-opacity:1;fill-rule:nonzero;stroke:none;stroke-width:2.59316492"
         d="m 3820.0963,5991.718 c -18.1667,4.9718 -26.3072,-23.8586 -15.1722,-40.684 10.758,-16.2493 39.8379,-75.1835 57.1394,-36.2274 13.8412,31.195 -22.6916,71.6364 -41.9672,76.9114" /><path
         id="path7034"
         style="fill:#fabe58;fill-opacity:1;fill-rule:nonzero;stroke:none;stroke-width:2.59316492"
         d="m 4419.5048,6072.5706 c -17.2349,-5.1537 -19.8302,-28.1635 -29.1907,-44.5038 -9.3828,-16.4312 6.4325,-35.2574 17.4567,-21.3424 10.2035,12.854 23.5345,28.6485 25.9522,48.0811 1.4863,11.9445 -5.9667,20.2207 -14.2182,17.7651" /><path
         id="path7036"
         style="fill:#fabe58;fill-opacity:1;fill-rule:nonzero;stroke:none;stroke-width:2.59316492"
         d="m 4248.5526,5940.7266 c -3.7265,14.2788 -7.2533,27.9816 -12.5548,41.3813 -9.7154,24.6468 -40.4588,5.0021 -32.6732,-20.918 4.1923,-13.9757 7.0094,-28.1029 11.8671,-41.7754 9.2718,-26.011 40.2592,-5.2143 33.3609,21.3121" /><path
         id="path7038"
         style="fill:#fabe58;fill-opacity:1;fill-rule:nonzero;stroke:none;stroke-width:2.59316492"
         d="m 3414.9082,5791.3298 c 3.1498,8.8825 2.329,17.5831 -0.976,26.0413 -3.5934,9.1251 -6.5214,18.4927 -8.5177,28.5577 -4.6137,23.4038 -31.3867,21.7364 -34.4477,-2.1525 -2.5953,-20.2814 0.9095,-38.8953 10.758,-54.7809 6.1886,-9.9436 12.3994,-13.1874 21.8265,-10.7925 -8.4289,-2.1524 3.5269,-1.0611 5.4567,-0.4244 3.3272,1.0914 5.4122,5.2144 6.2994,9.4283 0.488,2.2433 2.928,13.4602 -0.3992,4.123" /><path
         id="path7040"
         style="fill:#fabe58;fill-opacity:1;fill-rule:nonzero;stroke:none;stroke-width:2.59316492"
         d="m 3047.961,5832.8322 c -1.708,2.9407 -4.7913,6.6999 -5.6341,10.3681 -3.9039,16.9769 -21.6491,11.7323 -21.76,-5.2143 -0.1109,-13.8848 1.3974,-27.4662 11.2238,-34.2267 5.4788,-3.7592 13.5528,-1.0611 16.0593,7.1848 l 0.843,2.7285 c 1.7967,5.9115 2.4399,13.7027 -0.732,19.1596" /><path
         id="path7042"
         style="fill:#fabe58;fill-opacity:1;fill-rule:nonzero;stroke:none;stroke-width:2.59316492"
         d="m 4052.3579,5821.1 c -4.3698,20.6755 -30.81,21.494 -32.2961,-2.0009 -1.3088,-20.6755 4.3475,-43.7156 19.8302,-51.6583 9.3162,-4.79 21.649,2.2736 20.6287,18.1592 -0.843,13.1874 -5.5676,23.2524 -8.1628,35.5" /><path
         id="path7044"
         style="fill:#fabe58;fill-opacity:1;fill-rule:nonzero;stroke:none;stroke-width:2.59316492"
         d="m 3239.9412,5681.2829 c -3.8152,17.4923 -21.0502,14.4001 -24.3996,-1.5158 -3.8596,-18.1895 -0.9982,-36.2881 12.0445,-45.1707 2.9723,-2.0312 7.0537,-2.0919 9.8263,0.6669 9.5824,9.6405 5.3236,33.196 2.5288,46.0196" /></g></g></svg>