<?xml version="1.0" standalone="no"?>
<!DOCTYPE svg PUBLIC "-//W3C//DTD SVG 20010904//EN"
 "http://www.w3.org/TR/2001/REC-SVG-20010904/DTD/svg10.dtd">
<svg version="1.0" xmlns="http://www.w3.org/2000/svg"
 width="840.000000pt" height="920.000000pt" viewBox="0 0 840.000000 920.000000"
 preserveAspectRatio="xMidYMid meet">

<g transform="translate(0.000000,920.000000) scale(0.100000,-0.100000)"
fill="#000000" stroke="none">
<path d="M3071 8770 c-147 -40 -257 -105 -361 -217 -80 -85 -133 -173 -165
-276 -157 -494 200 -987 715 -987 202 0 380 73 525 215 230 225 290 572 150
860 -75 155 -193 276 -340 348 -114 57 -166 69 -315 73 -112 3 -147 1 -209
-16z"/>
<path d="M2355 7283 c-38 -8 -346 -77 -684 -154 -654 -148 -673 -154 -727
-224 -14 -19 -139 -294 -277 -612 l-251 -578 0 -90 c-1 -68 3 -99 17 -126 29
-59 81 -112 138 -144 48 -27 63 -30 139 -30 72 0 93 4 140 27 95 46 142 104
201 242 28 67 116 276 196 466 80 190 148 348 152 352 6 6 544 138 548 134 1
-1 -99 -401 -222 -889 -156 -621 -225 -912 -230 -970 -17 -221 87 -439 246
-515 33 -16 224 -54 693 -136 356 -63 650 -116 652 -119 3 -2 43 -296 89 -653
47 -357 92 -672 100 -699 30 -106 123 -204 230 -244 78 -29 203 -29 282 1 82
30 181 130 212 213 42 113 41 126 -83 996 -108 759 -116 810 -144 866 -37 72
-115 146 -187 178 -31 14 -162 46 -312 75 -142 28 -303 60 -357 70 -54 11
-101 20 -104 20 -2 0 -2 12 0 28 12 74 272 1238 278 1245 4 4 103 -135 221
-310 118 -174 229 -332 247 -350 48 -48 123 -83 195 -90 60 -5 79 0 643 186
505 166 587 196 635 230 93 68 149 173 149 282 0 128 -78 244 -193 288 -107
39 -121 36 -613 -129 -246 -82 -452 -150 -458 -150 -11 0 -565 823 -669 995
-100 163 -155 202 -372 259 -312 82 -380 89 -520 59z"/>
<path d="M6694 4771 c-2 -2 -4 -190 -4 -418 l0 -413 -585 0 -585 0 0 -420 0
-420 -585 0 -585 0 -2 -417 -3 -418 -587 -3 -588 -2 0 -415 0 -415 -569 0
c-313 0 -576 -3 -585 -6 -14 -5 -16 -59 -16 -505 l0 -499 170 0 170 0 0 335 0
335 585 0 585 0 0 420 0 420 585 0 585 0 0 415 0 415 585 0 585 0 2 418 3 417
588 3 587 2 0 420 0 420 585 0 585 0 0 165 0 165 -102 2 c-242 3 -1400 3
-1404 -1z"/>
<path d="M1475 3928 c-3 -7 -36 -114 -75 -238 l-70 -224 -423 -426 c-607 -609
-622 -625 -660 -700 -30 -61 -32 -71 -32 -170 0 -99 2 -110 33 -172 38 -77 97
-134 187 -182 56 -29 67 -31 160 -31 130 0 169 18 273 122 43 43 310 312 593
598 467 471 518 526 542 581 27 61 180 644 172 652 -2 3 -105 22 -227 43 -243
42 -308 62 -399 121 -67 43 -68 43 -74 26z"/>
</g>
</svg>
