<?xml version="1.0" standalone="no"?>
<!DOCTYPE svg PUBLIC "-//W3C//DTD SVG 20010904//EN"
 "http://www.w3.org/TR/2001/REC-SVG-20010904/DTD/svg10.dtd">
<svg version="1.0" xmlns="http://www.w3.org/2000/svg"
 width="1080.000000pt" height="1080.000000pt" viewBox="0 0 1080.000000 1080.000000"
 preserveAspectRatio="xMidYMid meet">

<g transform="translate(0.000000,1080.000000) scale(0.100000,-0.100000)"
fill="#000000" stroke="none">
<path d="M2050 10127 c-176 -61 -315 -224 -340 -399 -13 -88 -13 -8575 0
-8653 22 -139 136 -293 266 -362 129 -68 -161 -64 3571 -61 l3378 3 57 22
c161 61 278 185 334 353 18 52 19 119 21 1209 2 635 5 1156 6 1158 2 2 200 3
440 3 l437 0 0 2005 0 2004 -436 1 c-241 0 -439 1 -441 3 -1 2 -4 523 -6 1158
l-2 1154 -22 66 c-48 139 -146 250 -281 316 l-76 38 -3420 2 -3421 3 -65 -23z
m6544 -723 c10 -25 7 -1982 -3 -1988 -5 -3 -219 -6 -475 -7 l-466 0 0 -2004 0
-2004 467 -1 c257 0 471 -4 475 -8 4 -4 7 -456 6 -1003 l-3 -994 -3077 -3
-3078 -2 0 212 c0 250 0 7294 0 7606 l0 212 3074 0 c2794 0 3074 -1 3080 -16z
m869 -3132 c188 -188 344 -347 345 -352 3 -7 -303 -10 -873 -10 -577 0 -876 3
-873 10 2 5 199 206 438 445 l435 435 93 -93 c51 -50 247 -246 435 -435z"/>
<path d="M5071 8895 c-254 -46 -463 -206 -572 -438 -36 -77 -69 -226 -69 -313
0 -101 27 -221 72 -316 23 -49 45 -88 50 -88 4 0 8 -6 8 -13 0 -25 107 -143
176 -194 94 -69 161 -101 272 -129 213 -54 438 -14 622 109 69 46 175 160 220
237 173 290 135 662 -91 904 -124 132 -267 210 -444 241 -104 18 -145 18 -244
0z"/>
<path d="M4495 7225 c-66 -14 -179 -58 -204 -78 -9 -7 -29 -19 -45 -27 -41
-21 -169 -142 -222 -212 -74 -95 -168 -259 -278 -483 -226 -458 -604 -1242
-615 -1274 -32 -96 1 -234 74 -307 65 -64 116 -87 210 -92 160 -8 241 51 343
248 106 208 269 522 370 715 54 105 141 271 192 370 51 99 96 184 101 190 5 5
9 -107 9 -265 0 -151 1 -1042 3 -1980 l2 -1705 23 -56 c43 -108 153 -193 268
-208 154 -21 288 49 356 187 40 81 37 -6 38 1255 l0 897 75 0 75 0 0 -67 c1
-1060 8 -1996 14 -2023 4 -19 22 -59 39 -89 119 -200 393 -226 550 -52 21 24
48 64 60 89 22 47 22 53 24 682 2 349 3 1244 3 1988 0 743 3 1352 8 1352 4 0
35 -55 69 -123 149 -294 383 -740 396 -755 19 -22 52 -88 77 -155 11 -30 29
-65 40 -77 11 -13 20 -29 20 -37 0 -7 26 -64 58 -125 99 -194 183 -258 337
-258 60 0 82 5 133 31 146 72 206 220 159 389 -14 51 -182 397 -588 1215 -300
606 -458 771 -804 846 -22 4 -326 8 -675 8 -485 -1 -649 -4 -695 -14z"/>
</g>
</svg>
