<?xml version="1.0" standalone="no"?>
<!DOCTYPE svg PUBLIC "-//W3C//DTD SVG 20010904//EN"
 "http://www.w3.org/TR/2001/REC-SVG-20010904/DTD/svg10.dtd">
<svg version="1.0" xmlns="http://www.w3.org/2000/svg"
 width="260.000000pt" height="233.000000pt" viewBox="0 0 260.000000 233.000000"
 preserveAspectRatio="xMidYMid meet">

<g transform="translate(0.000000,233.000000) scale(0.100000,-0.100000)"
fill="#000000" stroke="none">
<path d="M1581 1873 c-46 -23 -71 -67 -71 -127 0 -43 4 -53 39 -87 34 -35 44
-39 87 -39 62 0 105 25 128 75 54 114 -71 235 -183 178z"/>
<path d="M1381 1570 c-58 -16 -110 -35 -118 -42 -19 -20 -63 -249 -52 -270 14
-26 47 -41 76 -33 29 7 45 43 63 138 13 72 12 71 51 80 l26 7 -58 -228 c-32
-125 -59 -237 -59 -248 0 -18 -17 -28 -97 -60 -73 -29 -101 -46 -113 -66 -13
-25 -13 -29 6 -55 12 -15 29 -30 38 -31 24 -5 242 77 261 98 8 9 22 55 31 101
9 46 21 88 25 93 5 6 28 -32 54 -87 l45 -97 0 -162 c0 -136 3 -164 17 -180 16
-17 12 -18 -110 -18 l-127 0 0 95 0 95 -155 0 -155 0 -1 103 c-1 56 -1 108 0
115 1 9 -36 12 -159 12 l-160 0 0 110 0 110 -185 0 -185 0 0 -70 0 -70 120 0
120 0 0 -105 0 -104 153 -3 152 -3 3 -112 3 -112 157 -3 157 -3 3 -97 3 -98
524 0 525 0 0 70 0 70 -301 0 -300 0 15 22 c13 18 16 55 16 193 l0 170 -55
119 c-30 66 -55 128 -55 138 0 10 12 62 27 115 22 80 29 93 37 78 30 -50 54
-64 170 -99 110 -33 121 -35 142 -21 31 20 40 59 21 88 -11 17 -41 31 -111 52
l-97 28 -62 91 c-34 50 -73 96 -87 103 -40 20 -127 14 -239 -17z"/>
</g>
</svg>
