<?xml version="1.0" standalone="no"?>
<!DOCTYPE svg PUBLIC "-//W3C//DTD SVG 20010904//EN"
 "http://www.w3.org/TR/2001/REC-SVG-20010904/DTD/svg10.dtd">
<svg version="1.0" xmlns="http://www.w3.org/2000/svg"
 width="1080.000000pt" height="1080.000000pt" viewBox="0 0 1080.000000 1080.000000"
 preserveAspectRatio="xMidYMid meet">
<metadata>
Created by potrace 1.16, written by Peter Selinger 2001-2019
</metadata>
<g transform="translate(0.000000,1080.000000) scale(0.100000,-0.100000)"
fill="#000000" stroke="none">
<path d="M3062 10578 c-9 -9 -12 -72 -12 -224 l0 -212 -88 -4 c-62 -3 -96 -9
-120 -23 -17 -11 -32 -23 -32 -28 0 -5 -6 -14 -13 -22 -8 -7 -46 -98 -85 -202
-39 -103 -112 -296 -162 -428 -50 -132 -110 -291 -132 -354 -39 -111 -40 -117
-28 -168 14 -64 57 -118 115 -144 34 -16 68 -19 215 -19 96 0 180 -4 187 -8 9
-6 13 -138 15 -547 l3 -540 24 -45 c52 -97 90 -132 221 -201 36 -19 67 -37 70
-40 10 -11 389 -221 403 -223 8 -1 30 -13 48 -27 32 -24 776 -450 864 -494 19
-10 20 -22 25 -310 4 -233 8 -299 18 -298 17 4 15 -44 -3 -51 -13 -5 -15 -65
-15 -462 0 -401 2 -455 15 -450 12 4 15 -2 15 -28 0 -21 -6 -36 -15 -40 -13
-5 -15 -258 -13 -2228 l3 -2223 28 -65 c36 -87 101 -168 173 -216 l59 -39 167
-3 c166 -3 168 -3 218 24 98 53 175 147 214 259 21 60 21 71 23 1605 1 850 5
1559 8 1577 13 73 110 132 192 117 47 -9 118 -74 127 -116 3 -17 6 -718 6
-1558 1 -1336 2 -1535 16 -1586 33 -128 104 -225 208 -288 l60 -36 157 0 c187
0 205 6 310 110 75 76 113 146 128 242 7 43 11 988 11 2873 0 1544 1 2809 2
2811 2 1 262 -255 578 -569 738 -734 702 -701 790 -728 109 -33 214 -9 300 68
77 69 90 102 90 228 0 94 -3 111 -26 156 -20 40 -189 214 -760 783 -405 402
-740 730 -745 728 -6 -1 -8 2 -5 6 3 5 -56 70 -132 143 -145 142 -197 177
-327 220 l-70 24 -840 2 c-818 3 -842 3 -910 24 -83 24 -130 49 -583 308 -191
108 -354 200 -362 204 -51 24 -107 67 -120 93 -12 24 -15 93 -16 409 -1 246 2
384 8 393 8 9 58 12 187 12 164 0 179 2 216 23 22 12 55 45 73 72 53 78 46
126 -62 410 -48 127 -123 325 -166 440 -44 116 -93 246 -109 289 -48 127 -89
156 -223 156 l-68 0 0 206 c0 122 -4 213 -10 225 -10 18 -23 19 -168 19 -110
0 -162 -4 -170 -12z m-17 -698 c4 -6 7 -31 7 -55 0 -66 12 -71 175 -74 166 -3
175 1 183 80 4 49 7 54 31 57 14 2 35 -5 47 -15 13 -11 60 -122 128 -303 59
-157 122 -324 139 -371 18 -47 40 -100 49 -117 19 -37 21 -78 3 -85 -21 -8
-231 -8 -242 0 -5 5 -12 37 -13 73 -7 132 -72 233 -184 289 -156 78 -356 2
-420 -160 -12 -30 -23 -85 -26 -124 -2 -38 -8 -72 -13 -75 -12 -8 -229 -11
-251 -4 -10 3 -18 12 -18 21 0 31 307 833 327 855 18 20 68 24 78 8z"/>
<path d="M5492 9180 c-309 -72 -553 -309 -638 -620 -14 -48 -18 -102 -19 -210
0 -176 12 -230 90 -386 145 -291 432 -467 760 -467 506 0 904 441 847 939 -12
100 -15 112 -60 238 -59 165 -226 347 -399 435 -120 61 -203 80 -368 86 -105
4 -146 1 -213 -15z"/>
</g>
</svg>
