<?xml version="1.0" standalone="no"?>
<!DOCTYPE svg PUBLIC "-//W3C//DTD SVG 20010904//EN"
 "http://www.w3.org/TR/2001/REC-SVG-20010904/DTD/svg10.dtd">
<svg version="1.0" xmlns="http://www.w3.org/2000/svg"
 width="225.000000pt" height="225.000000pt" viewBox="0 0 225.000000 225.000000"
 preserveAspectRatio="xMidYMid meet">

<g transform="translate(0.000000,225.000000) scale(0.100000,-0.100000)"
fill="#000000" stroke="none">
<path d="M1190 2241 c-107 -33 -171 -118 -171 -226 0 -243 326 -321 435 -103
88 177 -79 385 -264 329z"/>
<path d="M990 1761 c-97 -31 -150 -92 -190 -218 -56 -175 -73 -346 -50 -506
11 -72 29 -118 63 -154 l20 -23 -65 0 c-48 0 -69 -4 -79 -16 -17 -20 -1 -48
31 -52 18 -3 21 -8 17 -30 -16 -82 -118 -744 -116 -746 2 -2 16 -6 31 -10 29
-7 23 -24 57 179 l7 40 242 3 242 2 4 -22 c3 -13 10 -57 16 -98 17 -110 17
-111 48 -104 15 4 28 8 29 8 1 1 -5 48 -14 104 -8 57 -13 105 -10 108 3 3 14
1 25 -5 48 -26 136 0 161 48 14 26 171 657 171 687 0 24 -1 24 -30 9 -16 -8
-36 -15 -45 -15 -8 0 -101 29 -207 65 -105 36 -198 65 -207 66 -30 1 -60 55
-142 259 -82 203 -82 204 -68 244 11 31 23 45 53 60 36 17 43 18 80 5 37 -13
45 -22 77 -88 l36 -74 7 54 c11 91 -15 169 -69 205 -29 19 -90 26 -125 15z
m340 -950 c0 -15 -80 -345 -88 -365 -8 -18 -18 36 -59 307 -5 33 -3 37 16 37
12 0 24 7 27 15 7 16 104 22 104 6z m-215 -43 c3 -13 19 -111 35 -218 17 -107
32 -205 35 -217 l5 -23 -230 0 c-126 0 -230 2 -230 5 0 13 71 451 75 463 3 9
43 12 154 12 148 0 151 0 156 -22z"/>
<path d="M975 1605 c-14 -13 -25 -36 -25 -50 0 -36 156 -417 176 -432 25 -18
405 -143 435 -143 61 0 93 94 47 137 -13 11 -100 46 -195 77 l-172 57 -29 72
c-17 40 -47 115 -68 167 -21 52 -48 105 -61 118 -30 30 -77 29 -108 -3z"/>
</g>
</svg>
