<?xml version="1.0" standalone="no"?>
<!DOCTYPE svg PUBLIC "-//W3C//DTD SVG 20010904//EN"
 "http://www.w3.org/TR/2001/REC-SVG-20010904/DTD/svg10.dtd">
<svg version="1.0" xmlns="http://www.w3.org/2000/svg"
 width="512.000000pt" height="184.000000pt" viewBox="0 0 512.000000 184.000000"
 preserveAspectRatio="xMidYMid meet">

<g transform="translate(0.000000,184.000000) scale(0.100000,-0.100000)"
fill="#000000" stroke="none">
<path d="M4015 1827 c-22 -8 -57 -24 -78 -38 -20 -13 -177 -184 -347 -380
-283 -326 -313 -357 -347 -363 -21 -4 -110 -25 -198 -46 -268 -65 -356 -74
-725 -74 -179 -1 -408 1 -510 3 -181 4 -187 4 -265 -23 -191 -65 -285 -175
-285 -330 1 -214 168 -422 396 -494 201 -63 619 -97 875 -72 157 16 564 97
534 106 -5 2 -309 47 -674 99 -723 105 -723 105 -787 178 -95 112 -75 278 46
366 88 63 46 66 1050 -78 498 -72 914 -133 925 -136 17 -3 60 40 225 230 l203
235 17 -27 c9 -16 119 -206 246 -423 126 -217 242 -409 258 -428 86 -98 243
-125 364 -63 54 27 127 112 146 168 21 60 20 156 -2 210 -36 88 -727 1265
-766 1303 -22 22 -60 49 -85 61 -56 27 -160 34 -216 16z"/>
<path d="M480 1153 c-161 -27 -327 -148 -399 -292 -49 -96 -64 -170 -58 -281
10 -204 120 -371 302 -461 219 -107 460 -67 630 105 219 222 217 557 -5 776
-122 121 -306 181 -470 153z"/>
<path d="M1715 733 c-158 -83 -147 -309 17 -362 18 -5 538 -82 1155 -171 1245
-179 1167 -172 1243 -104 107 97 72 272 -64 324 -33 12 -2233 330 -2284 330
-20 -1 -50 -8 -67 -17z"/>
</g>
</svg>
