<?xml version="1.0" standalone="no"?>
<!DOCTYPE svg PUBLIC "-//W3C//DTD SVG 20010904//EN"
 "http://www.w3.org/TR/2001/REC-SVG-20010904/DTD/svg10.dtd">
<svg version="1.0" xmlns="http://www.w3.org/2000/svg"
 width="200.000000pt" height="200.000000pt" viewBox="0 0 200.000000 200.000000"
 preserveAspectRatio="xMidYMid meet">
<metadata>
Created by potrace 1.16, written by Peter Selinger 2001-2019
</metadata>
<g transform="translate(0.000000,200.000000) scale(0.100000,-0.100000)"
fill="#000000" stroke="none">
<path d="M1168 1870 c-45 -14 -87 -49 -115 -98 l-28 -47 0 -210 0 -210 28 -48
c15 -26 47 -60 69 -75 41 -26 45 -27 194 -27 l152 0 43 30 c23 17 53 50 66 74
22 42 23 54 23 256 0 203 -1 214 -23 256 -16 29 -40 54 -72 74 -47 29 -53 30
-179 32 -72 1 -143 -2 -158 -7z m289 -73 c30 -16 63 -52 63 -69 0 -12 -118
-10 -125 2 -3 6 -42 10 -86 10 -46 0 -79 -4 -79 -10 0 -6 -29 -10 -66 -10 -66
0 -66 0 -52 22 21 32 60 59 99 69 54 13 209 4 246 -14z m-337 -296 c0 -166 1
-180 21 -205 36 -45 69 -56 177 -56 87 0 103 3 133 23 54 37 59 54 59 245 0
149 2 172 16 172 13 0 15 -22 12 -182 -3 -173 -4 -185 -26 -216 -40 -56 -73
-67 -197 -67 -121 0 -157 12 -199 68 -19 26 -21 44 -24 213 -3 161 -1 184 12
184 14 0 16 -23 16 -179z m340 9 c0 -168 0 -171 -25 -195 -22 -23 -32 -25
-119 -25 -86 0 -98 2 -123 24 -28 24 -28 24 -31 171 -2 80 -1 157 2 171 l6 24
145 0 145 0 0 -170z"/>
<path d="M635 1758 c-36 -13 -82 -53 -101 -90 -22 -43 -18 -129 9 -169 81
-120 250 -111 308 15 24 52 24 100 0 151 -22 49 -48 73 -98 91 -45 16 -77 16
-118 2z"/>
<path d="M675 1390 c-76 -17 -117 -71 -116 -154 1 -73 87 -493 109 -530 10
-17 33 -41 52 -53 32 -22 42 -23 241 -23 l208 0 3 -231 3 -231 28 -24 c39 -33
99 -33 132 1 l25 24 0 311 c0 258 -3 316 -15 340 -27 53 -56 60 -237 60 l-163
0 -42 211 c-35 174 -47 217 -69 246 -35 47 -97 67 -159 53z"/>
<path d="M450 1192 c-33 -10 -50 -36 -50 -73 0 -39 71 -396 92 -459 6 -19 22
-51 34 -70 23 -34 24 -40 24 -252 l0 -218 210 0 210 0 0 165 0 165 50 0 c86 0
127 64 79 124 l-20 26 -155 0 c-160 0 -204 8 -247 48 -37 33 -55 89 -96 291
-22 112 -47 214 -55 226 -15 23 -50 35 -76 27z m331 -740 l86 -4 12 -117 c7
-64 14 -124 17 -133 5 -17 -6 -18 -132 -18 l-137 0 6 38 c3 20 11 86 18 145
10 93 14 107 28 101 9 -4 55 -9 102 -12z"/>
</g>
</svg>
